<?xml version="1.0" encoding="UTF-8" ?>
<!DOCTYPE svg PUBLIC "-//W3C//DTD SVG 1.1//EN" "http://www.w3.org/Graphics/SVG/1.1/DTD/svg11.dtd">
<svg width="400pt" height="400pt" viewBox="0 0 400 400" version="1.1" xmlns="http://www.w3.org/2000/svg">
<g id="#b7d0e1ff">
<path fill="#b7d0e1" opacity="1.00" d=" M 198.49 0.00 L 199.00 0.00 C 199.27 31.39 198.96 62.78 199.01 94.17 C 198.81 104.50 199.22 114.83 199.10 125.16 C 199.05 127.38 198.96 129.60 198.88 131.83 C 194.01 132.38 189.49 134.90 186.63 138.90 C 185.00 141.75 183.97 144.90 183.59 148.16 C 178.84 143.66 174.55 138.68 169.49 134.50 C 162.84 127.96 156.58 121.04 150.04 114.41 C 150.10 110.69 150.41 106.74 148.64 103.32 C 146.89 99.89 144.02 97.24 141.52 94.37 C 144.04 90.51 146.22 86.45 148.71 82.57 C 162.32 59.87 176.00 37.21 189.70 14.56 C 190.67 12.87 191.67 11.21 192.71 9.56 C 193.68 7.87 194.69 6.21 195.71 4.55 C 196.60 3.01 197.51 1.48 198.49 0.00 Z" />
</g>
<g id="#e1f0f3ff">
<path fill="#e1f0f3" opacity="1.00" d=" M 199.00 0.00 L 200.83 0.00 C 201.33 0.86 201.81 1.73 202.27 2.61 C 203.22 4.30 204.28 5.91 205.27 7.58 C 206.19 9.29 207.29 10.89 208.24 12.58 C 209.93 15.62 212.08 18.38 213.76 21.43 C 214.56 22.83 215.44 24.17 216.26 25.56 C 217.35 27.56 218.64 29.43 219.74 31.43 C 220.72 33.10 221.80 34.72 222.74 36.42 C 223.71 38.10 224.81 39.72 225.74 41.42 C 226.72 43.10 227.80 44.72 228.74 46.43 C 229.54 47.83 230.46 49.16 231.26 50.57 C 232.19 52.27 233.27 53.90 234.26 55.58 C 235.19 57.28 236.27 58.90 237.26 60.57 C 238.36 62.56 239.64 64.44 240.74 66.43 C 241.72 68.10 242.80 69.72 243.74 71.42 C 244.71 73.10 245.80 74.71 246.74 76.41 C 247.92 78.43 249.21 80.40 250.31 82.48 C 233.11 85.84 216.05 90.03 199.01 94.17 C 198.96 62.78 199.27 31.39 199.00 0.00 M 200.28 2.25 C 200.80 2.73 200.80 2.73 200.28 2.25 Z" />
</g>
<g id="#b5c2c6d0">
<path fill="#b5c2c6" opacity="0.82" d=" M 200.28 2.25 C 200.80 2.73 200.80 2.73 200.28 2.25 Z" />
</g>
<g id="#d4eaf4ff">
<path fill="#d4eaf4" opacity="1.00" d=" M 199.01 94.17 C 216.05 90.03 233.11 85.84 250.31 82.48 C 251.68 84.47 253.03 86.48 254.27 88.56 C 255.45 90.76 256.87 92.81 258.20 94.92 C 255.24 96.28 252.55 98.22 250.56 100.81 C 248.36 104.60 247.29 109.06 248.19 113.41 C 242.10 115.93 235.42 116.11 229.19 118.17 C 223.87 119.92 218.24 120.30 212.85 121.77 C 208.28 122.96 203.67 123.95 199.10 125.16 C 199.22 114.83 198.81 104.50 199.01 94.17 Z" />
</g>
<g id="#b2bcedff">
<path fill="#b2bced" opacity="1.00" d=" M 120.81 102.03 C 124.69 95.04 133.51 92.29 140.87 95.07 C 141.03 94.89 141.35 94.54 141.52 94.37 C 144.02 97.24 146.89 99.89 148.64 103.32 C 150.41 106.74 150.10 110.69 150.04 114.41 L 149.37 113.92 C 140.30 108.96 130.09 106.58 120.81 102.03 M 138.26 97.23 C 136.52 97.10 135.60 99.04 136.48 100.44 C 138.04 102.26 140.26 104.14 142.82 103.83 C 145.68 101.17 141.73 96.23 138.26 97.23 Z" />
</g>
<g id="#b6bfeeff">
<path fill="#b6bfee" opacity="1.00" d=" M 258.20 94.92 C 262.34 93.42 266.97 93.83 270.90 95.78 C 269.75 97.14 268.60 98.50 267.46 99.87 C 269.33 101.25 271.09 102.92 273.33 103.72 C 274.70 103.38 275.99 102.78 277.30 102.25 C 278.46 104.92 279.08 107.81 279.08 110.73 C 276.40 110.43 273.73 109.94 271.23 108.90 C 264.37 106.13 257.45 103.52 250.56 100.81 C 252.55 98.22 255.24 96.28 258.20 94.92 Z" />
<path fill="#b6bfee" opacity="1.00" d=" M 186.63 138.90 C 189.49 134.90 194.01 132.38 198.88 131.83 C 199.60 131.94 201.05 132.17 201.78 132.29 C 201.51 133.60 201.24 134.90 200.97 136.21 C 203.03 138.14 205.42 139.71 208.29 140.00 C 208.68 138.62 209.07 137.25 209.47 135.87 C 210.76 137.20 211.98 138.60 213.14 140.05 C 214.79 143.71 215.47 147.83 214.52 151.78 C 213.68 150.26 212.66 148.73 210.89 148.22 C 202.79 145.17 194.64 142.20 186.63 138.90 Z" />
</g>
<g id="#dadcf4ff">
<path fill="#dadcf4" opacity="1.00" d=" M 270.90 95.78 C 273.52 97.38 275.75 99.58 277.30 102.25 C 275.99 102.78 274.70 103.38 273.33 103.72 C 271.09 102.92 269.33 101.25 267.46 99.87 C 268.60 98.50 269.75 97.14 270.90 95.78 Z" />
<path fill="#dadcf4" opacity="1.00" d=" M 138.26 97.23 C 141.73 96.23 145.68 101.17 142.82 103.83 C 140.26 104.14 138.04 102.26 136.48 100.44 C 135.60 99.04 136.52 97.10 138.26 97.23 Z" />
<path fill="#dadcf4" opacity="1.00" d=" M 201.78 132.29 C 204.56 132.92 207.26 134.02 209.47 135.87 C 209.07 137.25 208.68 138.62 208.29 140.00 C 205.42 139.71 203.03 138.14 200.97 136.21 C 201.24 134.90 201.51 133.60 201.78 132.29 Z" />
<path fill="#dadcf4" opacity="1.00" d=" M 261.04 218.00 C 263.18 217.75 265.33 217.52 267.48 217.31 C 268.51 218.42 269.49 219.58 270.39 220.80 C 269.31 221.93 268.27 223.11 267.05 224.10 C 265.54 223.64 264.12 222.95 262.71 222.26 C 262.15 220.84 261.60 219.42 261.04 218.00 Z" />
</g>
<g id="#9aaae4ff">
<path fill="#9aaae4" opacity="1.00" d=" M 248.19 113.41 C 247.29 109.06 248.36 104.60 250.56 100.81 C 257.45 103.52 264.37 106.13 271.23 108.90 C 273.73 109.94 276.40 110.43 279.08 110.73 C 278.60 114.32 277.01 117.67 274.59 120.36 C 266.23 116.55 257.51 113.60 249.00 110.16 C 248.84 111.54 248.69 112.92 248.57 114.30 L 248.19 113.41 Z" />
</g>
<g id="#92a4e1ff">
<path fill="#92a4e1" opacity="1.00" d=" M 119.55 113.88 C 118.62 109.91 118.98 105.70 120.81 102.03 C 130.09 106.58 140.30 108.96 149.37 113.92 C 147.79 117.32 145.95 120.82 142.64 122.83 C 135.20 119.25 127.59 115.83 119.55 113.88 Z" />
</g>
<g id="#7d95d9ff">
<path fill="#7d95d9" opacity="1.00" d=" M 249.00 110.16 C 257.51 113.60 266.23 116.55 274.59 120.36 L 274.01 121.06 C 271.11 123.19 267.74 124.65 264.17 125.18 C 262.85 125.12 261.55 125.03 260.25 124.89 C 254.88 123.48 250.54 119.45 248.57 114.30 C 248.69 112.92 248.84 111.54 249.00 110.16 Z" />
</g>
<g id="#7891d7ff">
<path fill="#7891d7" opacity="1.00" d=" M 119.55 113.88 C 127.59 115.83 135.20 119.25 142.64 122.83 C 140.68 123.70 138.69 124.48 136.65 125.12 C 132.55 125.24 128.42 124.32 125.04 121.93 C 122.59 119.73 120.63 117.01 119.55 113.88 Z" />
<path fill="#7891d7" opacity="1.00" d=" M 242.49 233.88 C 250.51 235.94 258.23 239.11 265.64 242.77 C 260.34 245.93 253.50 245.57 248.41 242.18 C 245.83 239.90 243.72 237.11 242.49 233.88 Z" />
</g>
<g id="#b2bfe6ff">
<path fill="#b2bfe6" opacity="1.00" d=" M 149.37 113.92 L 150.04 114.41 C 156.58 121.04 162.84 127.96 169.49 134.50 C 174.55 138.68 178.84 143.66 183.59 148.16 C 183.84 149.23 184.12 150.30 184.44 151.37 C 184.64 151.98 185.05 153.20 185.25 153.81 C 179.94 156.13 174.61 158.40 169.25 160.61 C 164.26 157.00 160.26 152.31 156.04 147.88 C 150.85 143.10 145.93 138.05 140.62 133.40 C 138.16 131.33 137.61 128.01 136.65 125.12 C 138.69 124.48 140.68 123.70 142.64 122.83 C 145.95 120.82 147.79 117.32 149.37 113.92 Z" />
</g>
<g id="#c2e2f4ff">
<path fill="#c2e2f4" opacity="1.00" d=" M 229.19 118.17 C 235.42 116.11 242.10 115.93 248.19 113.41 L 248.57 114.30 C 250.54 119.45 254.88 123.48 260.25 124.89 C 260.17 125.61 260.01 127.03 259.93 127.74 C 259.56 128.51 259.18 129.27 258.79 130.03 C 255.78 130.71 252.83 131.60 249.87 132.48 C 246.41 133.54 242.72 133.41 239.26 134.46 C 234.77 135.76 230.27 137.08 225.68 137.93 C 221.46 138.42 217.24 138.92 213.14 140.05 C 211.98 138.60 210.76 137.20 209.47 135.87 C 207.26 134.02 204.56 132.92 201.78 132.29 C 201.05 132.17 199.60 131.94 198.88 131.83 C 198.96 129.60 199.05 127.38 199.10 125.16 C 203.67 123.95 208.28 122.96 212.85 121.77 C 218.24 120.30 223.87 119.92 229.19 118.17 Z" />
</g>
<g id="#b3dcf5ff">
<path fill="#b3dcf5" opacity="1.00" d=" M 264.17 125.18 C 267.74 124.65 271.11 123.19 274.01 121.06 C 274.55 122.20 275.13 123.32 275.69 124.45 C 276.53 125.83 277.45 127.15 278.26 128.55 C 279.19 130.26 280.27 131.89 281.25 133.57 C 282.19 135.27 283.27 136.89 284.25 138.56 C 285.36 140.56 286.64 142.45 287.73 144.46 C 288.56 145.83 289.47 147.16 290.33 148.53 C 291.19 149.79 292.01 151.09 292.76 152.43 C 293.74 154.11 294.80 155.74 295.75 157.44 C 296.54 158.84 297.45 160.16 298.25 161.56 C 299.19 163.26 300.27 164.89 301.25 166.57 C 302.19 168.27 303.27 169.88 304.25 171.57 C 305.19 173.27 306.27 174.88 307.25 176.57 C 308.19 178.27 309.27 179.89 310.25 181.56 C 311.36 183.55 312.63 185.45 313.75 187.44 C 314.73 189.11 315.80 190.73 316.76 192.42 C 317.97 194.48 319.26 196.49 320.30 198.65 C 300.75 190.49 281.20 182.33 261.74 173.95 C 262.67 157.70 263.31 141.44 264.17 125.18 Z" />
</g>
<g id="#afb2eaff">
<path fill="#afb2ea" opacity="1.00" d=" M 125.04 121.93 C 128.42 124.32 132.55 125.24 136.65 125.12 C 137.61 128.01 138.16 131.33 140.62 133.40 C 145.93 138.05 150.85 143.10 156.04 147.88 C 160.26 152.31 164.26 157.00 169.25 160.61 C 161.11 164.00 153.05 167.59 144.87 170.91 C 143.00 171.73 141.04 172.51 139.52 173.91 C 139.07 177.94 139.58 181.99 139.85 186.02 C 140.55 193.92 140.23 201.88 141.10 209.78 C 140.95 211.07 140.79 212.36 140.61 213.65 C 139.55 213.62 138.50 213.59 137.44 213.56 C 136.55 200.63 136.17 187.68 135.32 174.75 C 135.07 167.15 134.78 159.55 134.00 151.99 C 133.57 148.51 133.82 144.76 132.21 141.55 C 129.65 137.92 126.62 134.54 122.84 132.15 C 121.16 131.38 121.61 129.27 121.40 127.78 C 122.55 125.79 123.78 123.85 125.04 121.93 Z" />
</g>
<g id="#b0b4e9ff">
<path fill="#b0b4e9" opacity="1.00" d=" M 260.25 124.89 C 261.55 125.03 262.85 125.12 264.17 125.18 C 263.31 141.44 262.67 157.70 261.74 173.95 C 261.29 185.90 260.45 197.82 260.02 209.77 C 259.64 210.99 259.22 212.20 258.81 213.41 C 258.03 213.59 256.49 213.94 255.71 214.12 C 256.63 200.15 257.29 186.17 257.82 172.19 C 258.57 157.38 259.55 142.57 259.93 127.74 C 260.01 127.03 260.17 125.61 260.25 124.89 Z" />
<path fill="#b0b4e9" opacity="1.00" d=" M 188.61 158.58 C 189.84 159.60 191.14 160.55 192.49 161.42 C 188.26 165.98 184.95 171.26 181.25 176.22 C 172.27 188.58 163.22 200.88 154.33 213.30 C 153.28 214.72 152.18 216.11 150.98 217.41 L 150.35 217.41 C 149.45 216.86 148.58 216.28 147.70 215.71 C 157.30 201.99 167.42 188.64 177.15 175.01 C 180.95 169.52 185.40 164.46 188.61 158.58 Z" />
<path fill="#b0b4e9" opacity="1.00" d=" M 208.67 159.91 L 209.06 160.23 C 222.78 178.65 235.93 197.51 249.67 215.91 C 253.85 218.35 258.48 219.91 262.71 222.26 C 264.12 222.95 265.54 223.64 267.05 224.10 C 268.27 223.11 269.31 221.93 270.39 220.80 C 271.53 223.24 272.44 225.79 273.09 228.41 C 273.03 231.04 272.51 233.64 271.63 236.11 C 261.93 232.43 252.32 228.55 242.60 224.92 C 243.70 222.57 245.04 220.34 246.38 218.11 C 232.71 199.41 219.02 180.71 205.42 161.95 C 206.51 161.29 207.59 160.61 208.67 159.91 Z" />
</g>
<g id="#aba4eeff">
<path fill="#aba4ee" opacity="1.00" d=" M 109.28 147.90 C 113.32 141.20 117.38 134.50 121.40 127.78 C 121.61 129.27 121.16 131.38 122.84 132.15 C 126.62 134.54 129.65 137.92 132.21 141.55 C 133.82 144.76 133.57 148.51 134.00 151.99 C 134.78 159.55 135.07 167.15 135.32 174.75 L 134.61 175.10 C 133.92 171.04 130.27 169.05 127.53 166.48 C 121.70 160.05 115.46 153.99 109.28 147.90 Z" />
</g>
<g id="#b4dcf5ff">
<path fill="#b4dcf5" opacity="1.00" d=" M 258.79 130.03 C 259.18 129.27 259.56 128.51 259.93 127.74 C 259.55 142.57 258.57 157.38 257.82 172.19 C 243.12 166.25 228.41 160.34 213.88 154.00 C 214.04 153.44 214.36 152.33 214.52 151.78 C 215.47 147.83 214.79 143.71 213.14 140.05 C 217.24 138.92 221.46 138.42 225.68 137.93 C 230.27 137.08 234.77 135.76 239.26 134.46 C 242.72 133.41 246.41 133.54 249.87 132.48 C 252.83 131.60 255.78 130.71 258.79 130.03 Z" />
</g>
<g id="#96a7e2ff">
<path fill="#96a7e2" opacity="1.00" d=" M 183.59 148.16 C 183.97 144.90 185.00 141.75 186.63 138.90 C 194.64 142.20 202.79 145.17 210.89 148.22 C 212.66 148.73 213.68 150.26 214.52 151.78 C 214.36 152.33 214.04 153.44 213.88 154.00 C 212.40 156.17 210.73 158.20 209.06 160.23 L 208.67 159.91 C 203.54 157.22 198.00 155.46 192.69 153.18 C 190.09 152.00 187.28 151.40 184.44 151.37 C 184.12 150.30 183.84 149.23 183.59 148.16 Z" />
<path fill="#96a7e2" opacity="1.00" d=" M 126.88 222.01 C 136.26 226.45 146.44 228.99 155.59 233.93 C 154.43 236.47 152.97 238.91 151.06 240.97 C 142.71 236.81 133.91 233.48 125.02 230.68 C 124.99 229.58 125.00 228.50 125.04 227.41 C 125.54 225.57 126.16 223.77 126.88 222.01 Z" />
</g>
<g id="#a795f2ff">
<path fill="#a795f2" opacity="1.00" d=" M 78.65 198.72 C 88.83 181.76 99.08 164.85 109.28 147.90 C 115.46 153.99 121.70 160.05 127.53 166.48 C 130.27 169.05 133.92 171.04 134.61 175.10 C 115.98 183.04 97.34 190.95 78.65 198.72 Z" />
</g>
<g id="#7a92d8ff">
<path fill="#7a92d8" opacity="1.00" d=" M 184.44 151.37 C 187.28 151.40 190.09 152.00 192.69 153.18 C 198.00 155.46 203.54 157.22 208.67 159.91 C 207.59 160.61 206.51 161.29 205.42 161.95 C 203.33 162.58 201.16 162.95 198.99 163.22 C 196.77 162.81 194.59 162.21 192.49 161.42 C 191.14 160.55 189.84 159.60 188.61 158.58 C 187.37 157.07 186.22 155.50 185.25 153.81 C 185.05 153.20 184.64 151.98 184.44 151.37 Z" />
</g>
<g id="#dde1f9ff">
<path fill="#dde1f9" opacity="1.00" d=" M 169.25 160.61 C 174.61 158.40 179.94 156.13 185.25 153.81 C 186.22 155.50 187.37 157.07 188.61 158.58 C 185.40 164.46 180.95 169.52 177.15 175.01 C 167.42 188.64 157.30 201.99 147.70 215.71 C 145.72 215.19 143.73 214.70 141.74 214.22 C 141.51 212.74 141.28 211.26 141.10 209.78 C 140.23 201.88 140.55 193.92 139.85 186.02 C 139.58 181.99 139.07 177.94 139.52 173.91 C 141.04 172.51 143.00 171.73 144.87 170.91 C 153.05 167.59 161.11 164.00 169.25 160.61 Z" />
</g>
<g id="#f5f8f5ff">
<path fill="#f5f8f5" opacity="1.00" d=" M 209.06 160.23 C 210.73 158.20 212.40 156.17 213.88 154.00 C 228.41 160.34 243.12 166.25 257.82 172.19 C 257.29 186.17 256.63 200.15 255.71 214.12 C 253.67 214.62 251.67 215.26 249.67 215.91 C 235.93 197.51 222.78 178.65 209.06 160.23 Z" />
</g>
<g id="#dee1f9ff">
<path fill="#dee1f9" opacity="1.00" d=" M 181.25 176.22 C 184.95 171.26 188.26 165.98 192.49 161.42 C 194.59 162.21 196.77 162.81 198.99 163.22 C 199.26 198.85 198.90 234.48 199.17 270.11 C 182.92 260.48 166.40 251.29 150.05 241.83 L 151.06 240.97 C 152.97 238.91 154.43 236.47 155.59 233.93 C 156.83 229.03 155.29 224.12 152.65 219.98 C 151.95 221.39 151.25 222.81 150.56 224.23 C 148.24 223.14 145.99 221.93 143.78 220.65 C 144.15 219.67 144.54 218.71 144.96 217.76 C 146.72 217.36 148.55 217.43 150.35 217.41 L 150.98 217.41 C 152.18 216.11 153.28 214.72 154.33 213.30 C 163.22 200.88 172.27 188.58 181.25 176.22 Z" />
</g>
<g id="#eff3f2ff">
<path fill="#eff3f2" opacity="1.00" d=" M 198.99 163.22 C 201.16 162.95 203.33 162.58 205.42 161.95 C 219.02 180.71 232.71 199.41 246.38 218.11 C 245.04 220.34 243.70 222.57 242.60 224.92 C 241.99 227.86 241.93 230.92 242.49 233.88 C 243.72 237.11 245.83 239.90 248.41 242.18 C 247.48 242.96 246.50 243.67 245.50 244.34 C 243.00 245.38 240.71 246.81 238.45 248.28 C 236.00 249.42 233.70 250.82 231.44 252.28 C 228.98 253.42 226.67 254.82 224.44 256.35 C 223.93 256.56 222.90 257.00 222.39 257.21 C 219.83 258.81 217.30 260.46 214.55 261.73 C 212.90 262.71 211.30 263.79 209.61 264.72 C 207.42 265.69 205.41 267.00 203.45 268.37 C 202.04 268.99 200.64 269.65 199.17 270.11 C 198.90 234.48 199.26 198.85 198.99 163.22 Z" />
</g>
<g id="#fbfcf7ff">
<path fill="#fbfcf7" opacity="1.00" d=" M 261.74 173.95 C 281.20 182.33 300.75 190.49 320.30 198.65 C 320.72 198.82 321.57 199.17 322.00 199.34 C 322.00 199.68 322.00 200.35 322.00 200.69 C 320.78 201.17 319.58 201.69 318.37 202.19 C 316.70 203.19 315.10 204.29 313.46 205.33 C 312.48 205.77 311.50 206.22 310.53 206.67 C 309.16 207.53 307.83 208.46 306.47 209.33 C 305.49 209.77 304.51 210.22 303.53 210.67 C 302.16 211.53 300.83 212.47 299.46 213.33 C 298.48 213.77 297.51 214.22 296.53 214.68 C 295.16 215.53 293.83 216.47 292.47 217.33 C 291.48 217.77 290.51 218.22 289.53 218.67 C 288.16 219.53 286.83 220.46 285.47 221.32 C 284.49 221.77 283.52 222.23 282.55 222.68 C 280.90 223.71 279.29 224.81 277.58 225.75 C 276.06 226.61 274.61 227.58 273.09 228.41 C 272.44 225.79 271.53 223.24 270.39 220.80 C 269.49 219.58 268.51 218.42 267.48 217.31 C 265.18 216.10 262.77 215.11 260.38 214.11 C 260.25 212.66 260.11 211.21 260.02 209.77 C 260.45 197.82 261.29 185.90 261.74 173.95 Z" />
</g>
<g id="#d8d3faff">
<path fill="#d8d3fa" opacity="1.00" d=" M 134.61 175.10 L 135.32 174.75 C 136.17 187.68 136.55 200.63 137.44 213.56 C 133.64 215.97 129.26 217.98 126.88 222.01 C 126.16 223.77 125.54 225.57 125.04 227.41 C 109.52 218.80 94.24 209.78 78.79 201.06 C 76.80 200.83 78.39 199.53 78.65 198.72 C 97.34 190.95 115.98 183.04 134.61 175.10 Z" />
</g>
<g id="#b3bdedff">
<path fill="#b3bded" opacity="1.00" d=" M 141.10 209.78 C 141.28 211.26 141.51 212.74 141.74 214.22 C 143.73 214.70 145.72 215.19 147.70 215.71 C 148.58 216.28 149.45 216.86 150.35 217.41 C 148.55 217.43 146.72 217.36 144.96 217.76 C 144.54 218.71 144.15 219.67 143.78 220.65 C 145.99 221.93 148.24 223.14 150.56 224.23 C 151.25 222.81 151.95 221.39 152.65 219.98 C 155.29 224.12 156.83 229.03 155.59 233.93 C 146.44 228.99 136.26 226.45 126.88 222.01 C 129.26 217.98 133.64 215.97 137.44 213.56 C 138.50 213.59 139.55 213.62 140.61 213.65 C 140.79 212.36 140.95 211.07 141.10 209.78 Z" />
</g>
<g id="#c3c9f3ff">
<path fill="#c3c9f3" opacity="1.00" d=" M 258.81 213.41 C 259.22 212.20 259.64 210.99 260.02 209.77 C 260.11 211.21 260.25 212.66 260.38 214.11 C 262.77 215.11 265.18 216.10 267.48 217.31 C 265.33 217.52 263.18 217.75 261.04 218.00 C 261.60 219.42 262.15 220.84 262.71 222.26 C 258.48 219.91 253.85 218.35 249.67 215.91 C 251.67 215.26 253.67 214.62 255.71 214.12 C 256.49 213.94 258.03 213.59 258.81 213.41 Z" />
</g>
<g id="#c8cbf8ff">
<path fill="#c8cbf8" opacity="1.00" d=" M 320.40 224.22 C 321.48 223.74 322.55 223.27 323.63 222.79 C 322.48 224.85 320.95 226.66 319.65 228.62 C 318.88 229.54 318.10 230.46 317.31 231.37 C 316.46 232.78 315.56 234.16 314.68 235.55 C 313.98 236.53 313.30 237.51 312.64 238.51 C 311.96 239.54 311.30 240.57 310.68 241.64 C 309.89 242.54 309.10 243.45 308.32 244.36 C 307.70 245.43 307.03 246.46 306.36 247.49 C 305.70 248.49 305.00 249.47 304.31 250.45 C 303.45 251.85 302.52 253.21 301.69 254.64 C 300.90 255.54 300.10 256.45 299.31 257.36 C 298.47 258.78 297.54 260.14 296.69 261.55 C 295.98 262.52 295.30 263.51 294.64 264.52 C 293.96 265.54 293.30 266.57 292.68 267.64 C 291.89 268.55 291.09 269.45 290.31 270.37 C 289.47 271.79 288.54 273.15 287.68 274.55 C 286.99 275.53 286.30 276.52 285.66 277.53 C 284.97 278.51 284.29 279.51 283.65 280.52 C 282.97 281.54 282.30 282.57 281.68 283.64 C 280.89 284.55 280.09 285.45 279.31 286.37 C 278.47 287.79 277.55 289.15 276.69 290.55 C 275.98 291.52 275.30 292.51 274.64 293.52 C 273.96 294.54 273.30 295.57 272.68 296.64 C 271.89 297.55 271.09 298.45 270.31 299.36 C 269.47 300.78 268.55 302.14 267.69 303.55 C 266.99 304.52 266.30 305.51 265.64 306.51 C 264.96 307.54 264.30 308.57 263.68 309.64 C 262.89 310.55 262.09 311.45 261.29 312.36 C 260.46 313.80 259.54 315.19 258.70 316.63 C 258.35 317.06 257.65 317.94 257.30 318.37 C 256.46 319.80 255.54 321.19 254.71 322.63 C 253.91 323.54 253.11 324.44 252.32 325.36 C 251.70 326.42 251.03 327.45 250.36 328.49 C 249.70 329.49 249.00 330.47 248.31 331.45 C 247.45 332.85 246.52 334.21 245.70 335.63 C 244.90 336.53 244.10 337.44 243.32 338.36 C 242.70 339.42 242.02 340.45 241.35 341.48 C 240.58 342.67 239.75 343.83 238.95 345.02 C 238.06 343.30 237.37 341.50 236.84 339.65 C 235.00 340.05 233.15 340.46 231.31 340.87 C 231.43 339.74 231.56 338.62 231.69 337.51 C 230.56 337.63 229.44 337.75 228.32 337.88 C 229.09 337.13 229.86 336.39 230.63 335.65 C 230.46 335.10 230.29 334.56 230.12 334.02 C 227.14 333.88 224.24 333.18 221.43 332.23 C 222.21 330.46 222.99 328.70 223.77 326.94 C 222.54 326.24 221.35 325.44 220.03 324.90 C 218.94 325.33 217.93 325.94 216.90 326.50 C 214.93 325.75 212.76 325.24 211.13 323.86 C 210.34 322.47 209.83 320.95 209.24 319.48 C 208.15 318.74 206.98 318.08 206.05 317.16 C 205.35 314.59 205.29 311.78 203.53 309.62 C 202.73 310.63 201.94 311.65 201.15 312.67 C 200.44 311.29 199.72 309.91 199.08 308.50 C 198.97 303.06 199.07 297.62 198.93 292.18 C 199.56 292.00 200.81 291.62 201.44 291.43 C 203.06 290.33 204.68 289.20 206.37 288.19 C 207.45 287.73 208.53 287.25 209.63 286.80 C 211.29 285.80 212.89 284.72 214.53 283.69 C 215.51 283.23 216.49 282.77 217.47 282.31 C 219.10 281.28 220.71 280.20 222.38 279.22 C 223.75 278.60 225.11 277.96 226.46 277.31 C 228.10 276.29 229.69 275.20 231.39 274.28 C 233.85 273.15 236.09 271.63 238.38 270.20 C 239.46 269.74 240.54 269.26 241.63 268.80 C 243.30 267.80 244.90 266.70 246.54 265.66 C 247.06 265.44 248.09 265.02 248.61 264.80 C 250.28 263.80 251.89 262.71 253.54 261.67 C 254.04 261.44 255.06 260.97 255.56 260.74 C 256.53 260.25 257.50 259.77 258.47 259.30 C 259.84 258.45 261.16 257.53 262.53 256.69 C 263.50 256.22 264.47 255.76 265.45 255.31 C 267.44 254.02 269.41 252.72 271.56 251.72 C 274.00 250.58 276.31 249.19 278.54 247.69 C 279.51 247.23 280.49 246.77 281.47 246.31 C 282.83 245.46 284.16 244.54 285.52 243.68 C 286.50 243.22 287.49 242.77 288.47 242.32 C 289.83 241.46 291.16 240.54 292.53 239.70 C 293.50 239.22 294.47 238.74 295.44 238.26 C 295.94 238.03 296.96 237.57 297.47 237.33 C 298.83 236.47 300.15 235.54 301.52 234.68 C 302.50 234.22 303.49 233.77 304.48 233.32 C 305.84 232.46 307.16 231.53 308.53 230.67 C 309.04 230.43 310.05 229.95 310.56 229.72 C 311.07 229.48 312.09 229.02 312.60 228.78 C 315.16 227.19 317.71 225.58 320.40 224.22 Z" />
</g>
<g id="#6e89d3ff">
<path fill="#6e89d3" opacity="1.00" d=" M 76.52 223.52 C 112.80 243.76 148.93 264.26 185.17 284.58 C 180.97 287.31 178.98 292.08 175.55 295.56 C 171.58 299.63 168.60 304.51 164.87 308.79 C 159.93 315.75 154.17 322.10 149.59 329.33 C 125.24 294.05 100.80 258.84 76.52 223.52 Z" />
</g>
<g id="#8ca0dfff">
<path fill="#8ca0df" opacity="1.00" d=" M 242.60 224.92 C 252.32 228.55 261.93 232.43 271.63 236.11 C 270.17 238.76 268.12 241.05 265.64 242.77 C 258.23 239.11 250.51 235.94 242.49 233.88 C 241.93 230.92 241.99 227.86 242.60 224.92 Z" />
</g>
<g id="#7c94d9ff">
<path fill="#7c94d9" opacity="1.00" d=" M 125.02 230.68 C 133.91 233.48 142.71 236.81 151.06 240.97 L 150.05 241.83 C 146.53 244.25 142.17 245.55 137.92 244.76 C 131.04 243.73 125.53 237.58 125.02 230.68 Z" />
</g>
<g id="#6a83e4ff">
<path fill="#6a83e4" opacity="1.00" d=" M 185.17 284.58 C 189.76 287.10 194.22 289.89 198.93 292.18 C 199.07 297.62 198.97 303.06 199.08 308.50 C 199.07 311.22 198.98 313.94 198.96 316.66 C 195.60 320.44 192.62 324.52 189.06 328.13 C 185.61 333.27 181.54 337.93 177.74 342.81 C 174.79 347.33 170.65 350.87 167.50 355.24 C 161.53 346.60 155.56 337.96 149.59 329.33 C 154.17 322.10 159.93 315.75 164.87 308.79 C 168.60 304.51 171.58 299.63 175.55 295.56 C 178.98 292.08 180.97 287.31 185.17 284.58 Z" />
</g>
<g id="#c5c6fbff">
<path fill="#c5c6fb" opacity="1.00" d=" M 199.08 308.50 C 199.72 309.91 200.44 311.29 201.15 312.67 C 201.94 311.65 202.73 310.63 203.53 309.62 C 205.29 311.78 205.35 314.59 206.05 317.16 C 206.98 318.08 208.15 318.74 209.24 319.48 C 209.83 320.95 210.34 322.47 211.13 323.86 C 212.76 325.24 214.93 325.75 216.90 326.50 C 217.93 325.94 218.94 325.33 220.03 324.90 C 221.35 325.44 222.54 326.24 223.77 326.94 C 222.99 328.70 222.21 330.46 221.43 332.23 C 224.24 333.18 227.14 333.88 230.12 334.02 C 230.29 334.56 230.46 335.10 230.63 335.65 C 229.86 336.39 229.09 337.13 228.32 337.88 C 229.44 337.75 230.56 337.63 231.69 337.51 C 231.56 338.62 231.43 339.74 231.31 340.87 C 233.15 340.46 235.00 340.05 236.84 339.65 C 237.37 341.50 238.06 343.30 238.95 345.02 C 238.42 345.84 237.87 346.64 237.32 347.46 C 236.45 348.85 235.52 350.21 234.69 351.63 C 233.90 352.54 233.10 353.45 232.32 354.36 C 231.70 355.42 231.03 356.45 230.36 357.49 C 229.70 358.49 229.00 359.47 228.31 360.45 C 227.45 361.85 226.52 363.21 225.70 364.64 C 224.90 365.54 224.10 366.45 223.31 367.36 C 222.47 368.78 221.54 370.14 220.69 371.55 C 219.99 372.52 219.30 373.50 218.64 374.51 C 217.96 375.53 217.30 376.57 216.68 377.63 C 215.89 378.54 215.10 379.45 214.32 380.36 C 213.70 381.42 213.03 382.45 212.36 383.49 C 211.70 384.49 211.00 385.47 210.31 386.45 C 209.45 387.85 208.52 389.21 207.70 390.64 C 206.89 391.54 206.08 392.44 205.28 393.36 C 204.45 394.82 203.52 396.23 202.73 397.72 C 201.97 398.49 201.20 399.25 200.41 400.00 L 199.01 400.00 C 198.99 372.22 199.06 344.44 198.96 316.66 C 198.98 313.94 199.07 311.22 199.08 308.50 Z" />
</g>
<g id="#677ff0ff">
<path fill="#677ff0" opacity="1.00" d=" M 189.06 328.13 C 192.62 324.52 195.60 320.44 198.96 316.66 C 199.06 344.44 198.99 372.22 199.01 400.00 L 198.45 400.00 C 188.12 385.09 177.83 370.15 167.50 355.24 C 170.65 350.87 174.79 347.33 177.74 342.81 C 181.54 337.93 185.61 333.27 189.06 328.13 Z" />
</g>
</svg>
