<svg width="116" height="116" viewBox="0 0 116 116" fill="none" xmlns="http://www.w3.org/2000/svg">
<path d="M92 0H24C10.7452 0 0 10.7452 0 24V92C0 105.255 10.7452 116 24 116H92C105.255 116 116 105.255 116 92V24C116 10.7452 105.255 0 92 0Z" fill="url(#paint0_linear_906_77)"/>
<path d="M58 92C76.7777 92 92 76.7777 92 58C92 39.2223 76.7777 24 58 24C39.2223 24 24 39.2223 24 58C24 76.7777 39.2223 92 58 92Z" fill="black"/>
<path fill-rule="evenodd" clip-rule="evenodd" d="M63.9986 40H51.9987V52.1262H40V64.2523H51.9987V75.9997H63.9986V63.8736H51.9999V52.1262H63.9986V40ZM76 52.1262H64.0002V64.2523H76V52.1262Z" fill="url(#paint1_linear_906_77)"/>
<defs>
<linearGradient id="paint0_linear_906_77" x1="116" y1="-1.03712e-05" x2="1.03712e-05" y2="116" gradientUnits="userSpaceOnUse">
<stop offset="0.395833" stop-color="#A9FFE0"/>
<stop offset="1" stop-color="#86D5FF"/>
</linearGradient>
<linearGradient id="paint1_linear_906_77" x1="76" y1="40" x2="40.0003" y2="76" gradientUnits="userSpaceOnUse">
<stop offset="0.395833" stop-color="#A9FFE0"/>
<stop offset="1" stop-color="#86D5FF"/>
</linearGradient>
</defs>
</svg>
