<svg xmlns="http://www.w3.org/2000/svg" xmlns:xlink="http://www.w3.org/1999/xlink" viewBox="0 0 24 24"><defs><style>.cls-1{fill:#fff;}.cls-1,.cls-3{fill-rule:evenodd;}.cls-2{mask:url(#mask);}.cls-3{fill:#6c6eb9;}.cls-4{mask:url(#mask-2);}</style><mask id="mask" x="0" y="0" width="11" height="11" maskUnits="userSpaceOnUse"><g id="mask-4"><polygon id="path-3" class="cls-1" points="0 0 11 0 11 11 0 11 0 0"/></g></mask><mask id="mask-2" x="0" y="13" width="11" height="11" maskUnits="userSpaceOnUse"><g id="mask-6"><polygon id="path-5" class="cls-1" points="0 13 11 13 11 24 0 24 0 13"/></g></mask></defs><g id="图层_2" data-name="图层 2"><g id="图层_1-2" data-name="图层 1"><g class="cls-2"><path id="Fill-13" class="cls-3" d="M7.58,10.59A7,7,0,0,0,5.3,6.73L6.66,5.38a7,7,0,0,0,3.93,2.21A5.56,5.56,0,0,0,11,5.5,5.5,5.5,0,0,0,5.5,0H0V5.5a5.5,5.5,0,0,0,7.58,5.09"/></g><path id="Fill-15" class="cls-3" d="M16.42,10.59A7,7,0,0,1,18.7,6.73L17.34,5.38a7,7,0,0,1-3.93,2.21A5.56,5.56,0,0,1,13,5.5,5.5,5.5,0,0,1,18.5,0H24V5.5a5.5,5.5,0,0,1-7.58,5.09"/><g class="cls-4"><path id="Fill-17" class="cls-3" d="M7.58,13.41A7,7,0,0,1,5.3,17.27l1.36,1.35a7,7,0,0,1,3.93-2.21A5.56,5.56,0,0,1,11,18.5,5.5,5.5,0,0,1,5.5,24H0V18.5a5.5,5.5,0,0,1,7.58-5.09"/></g><path id="Fill-19" class="cls-3" d="M16.42,13.41a7,7,0,0,0,2.28,3.86l-1.36,1.35a7,7,0,0,0-3.93-2.21A5.56,5.56,0,0,0,13,18.5,5.5,5.5,0,0,0,18.5,24H24V18.5a5.5,5.5,0,0,0-7.58-5.09"/></g></g></svg>