<?xml version="1.0" encoding="UTF-8"?>
<svg width="644px" height="140px" viewBox="0 0 644 140" version="1.1" xmlns="http://www.w3.org/2000/svg" xmlns:xlink="http://www.w3.org/1999/xlink">
    <title>logo</title>
    <defs>
        <filter color-interpolation-filters="auto" id="filter-1">
            <feColorMatrix in="SourceGraphic" type="matrix" values="0 0 0 0 0.475711 0 0 0 0 0.490700 0 0 0 0 0.996551 0 0 0 1.000000 0"></feColorMatrix>
        </filter>
        <polygon id="path-2" points="0 0 68.89 0 68.89 83.375 0 83.375"></polygon>
    </defs>
    <g id="Page-1" stroke="none" stroke-width="1" fill="none" fill-rule="evenodd">
        <g filter="url(#filter-1)" id="logo">
            <g transform="translate(-0.000000, 0.000000)">
                <path d="M86.57765,52.496575 L67.02345,69.808975 L86.57765,87.121375 C97.37765,97.921375 114.88765,97.921375 125.68765,87.121375 C136.48665,76.321575 136.48665,63.296275 125.68765,52.496575 C114.88765,41.696775 97.37765,41.696775 86.57765,52.496575 Z M92.91665,58.449875 L80.08655,69.808975 L92.91665,81.168075 C100.00265,88.254375 111.49165,88.254375 118.57765,81.168075 C125.66365,74.082075 125.66365,65.535775 118.57765,58.449875 C111.49165,51.363875 100.00265,51.363875 92.91665,58.449875 Z" id="Shape" fill="#732DD9"></path>
                <path d="M84.33665,92.211375 L67.02395,72.656375 L49.71155,92.211375 C38.91175,103.010375 38.91175,120.520375 49.71155,131.320375 C60.51125,142.120375 73.53655,142.120375 84.33665,131.320375 C95.13565,120.520375 95.13565,103.010375 84.33665,92.211375 Z M73.21435,104.053375 L67.02395,97.061375 L60.83345,104.053375 C56.97175,107.915375 56.97175,114.176375 60.83345,118.037375 C64.69515,121.899375 69.35265,121.899375 73.21435,118.037375 C77.07605,114.176375 77.07605,107.915375 73.21435,104.053375 Z" id="Shape" fill="#732DD9"></path>
                <path d="M49.71115,47.209075 L67.02345,66.763675 L84.33565,47.209075 C95.13565,36.409275 95.13565,18.899475 84.33565,8.099775 C73.53615,-2.699925 60.51085,-2.699925 49.71105,8.099775 C38.91135,18.899475 38.91135,36.409375 49.71115,47.209075 Z M67.02345,62.013475 L82.04165,45.050175 L82.10935,44.982475 C91.67965,35.412475 91.67965,19.896375 82.10935,10.326275 C77.15875,5.375775 71.96415,3.148775 67.02345,3.148775 C62.08285,3.148775 56.88825,5.375775 51.93765,10.326275 C42.36755,19.896375 42.36755,35.412475 51.93765,44.982475 L52.00525,45.050175 L67.02345,62.013475 Z" id="Shape" fill="#732DD9"></path>
                <path d="M66.76375,69.808875 L47.20905,52.496475 C36.40935,41.696775 18.89955,41.696775 8.09985,52.496475 C-2.69995,63.296175 -2.69995,76.321475 8.09985,87.121375 C18.89955,97.921375 36.40935,97.921375 47.20905,87.121375 L66.76375,69.808875 Z" id="Path" fill="#732DD9" fill-rule="nonzero"></path>
                <g id="Clipped" transform="translate(157.787650, 25.787375)">
                    <mask id="mask-3" fill="white">
                        <use xlink:href="#path-2"></use>
                    </mask>
                    <g id="Path"></g>
                    <path d="M29.661,0.1536 C33.451,-0.2073 37.259,0.1258 41.031,0.5495 C47.358,1.3174 53.618,2.9785 59.343,5.8487 C61.426,6.9284 63.458,8.1516 65.261,9.6724 C61.848,14.4075 58.486,19.1879 54.966,23.8383 C48.19,20.8737 40.865,18.9848 33.458,18.9913 C30.597,19.0825 27.609,19.3244 25.045,20.7301 C23.739,21.4552 22.551,22.7839 22.609,24.3817 C22.724,25.6573 23.67,26.6561 24.714,27.2732 C26.793,28.4648 29.084,29.2009 31.354,29.9157 C39.342,32.3868 47.603,34.1424 55.2,37.7662 C60.314,40.269 65.165,44.0784 67.421,49.5244 C70.282,56.3205 68.686,64.283 65.023,70.434 C61.274,75.852 55.467,79.553 49.289,81.477 C43.319,83.321 36.958,83.755 30.767,83.065 C19.739,81.443 8.838,77.577 0,70.55 C3.403,65.685 6.872,60.859 10.355,56.0508 C15.371,59.52 21.138,61.739 27.008,63.207 C32.014,64.364 37.324,64.914 42.351,63.582 C44.428,62.969 46.67,61.91 47.624,59.8111 C48.318,58.3672 47.682,56.6252 46.522,55.6407 C44.936,54.2492 42.856,53.678 40.904,53.026 C32.359,50.4501 23.487,48.7294 15.399,44.7971 C10.655,42.4871 6.223,39.014 3.808,34.167 C1.396,29.4286 1.299,23.7652 2.726,18.708 C3.877,14.3234 6.737,10.6117 10.037,7.6432 C15.495,2.9572 22.624,0.7216 29.661,0.1536 Z" id="Path" fill="#732DD9" fill-rule="nonzero" mask="url(#mask-3)"></path>
                </g>
                <path d="M368.87265,80.493975 C366.13865,84.246975 361.98765,86.943375 357.44065,87.889375 C352.63565,88.915375 347.43865,88.003375 343.31165,85.330075 C338.46965,82.311475 335.16765,76.986075 334.59765,71.315075 C334.07465,66.686575 335.36965,61.896875 338.10765,58.134275 C341.14065,53.922275 345.96565,51.054475 351.11965,50.417575 C355.13965,49.913975 359.31365,50.722475 362.83365,52.734675 C367.92665,55.548275 371.56365,60.834375 372.34565,66.598875 C373.06365,71.449175 371.79265,76.550175 368.87265,80.493975 Z M393.44765,70.072675 C393.45065,69.812175 393.46265,69.552375 393.46065,69.292575 C393.54865,58.694475 389.10265,48.169975 381.48565,40.808575 C373.18465,32.548275 361.08165,28.356275 349.44165,29.640575 C344.02565,30.180875 338.72765,31.867475 333.99365,34.546975 C324.91765,39.624775 317.99565,48.387975 315.20065,58.405675 C311.81565,70.174475 314.21365,83.468775 321.67665,93.208375 C329.28965,103.548375 342.17465,109.702375 355.00565,109.125375 C361.12165,108.939375 367.16365,107.269375 372.54265,104.371375 L372.54265,109.162674 L393.46265,109.162674 L393.46265,70.072675 L393.44765,70.072675 Z" id="Shape" fill="#732DD9" fill-rule="nonzero"></path>
                <path d="M430.37565,29.566075 C434.16565,29.205275 437.97265,29.538175 441.74565,29.962275 C448.07265,30.729975 454.33265,32.391175 460.05765,35.261575 C462.14065,36.340875 464.17265,37.563975 465.97665,39.084775 C462.56265,43.820075 459.20065,48.600075 455.68065,53.250775 C448.90465,50.285875 441.57965,48.396975 434.17265,48.404275 C431.31165,48.494875 428.32265,48.737175 425.75965,50.142075 C424.45365,50.867875 423.26465,52.196175 423.32365,53.794175 C423.43765,55.069875 424.38465,56.068575 425.42765,56.685775 C427.50765,57.876975 429.79865,58.613375 432.06865,59.328475 C440.05665,61.799375 448.31765,63.555075 455.91565,67.178575 C461.02865,69.681375 465.87865,73.490575 468.13465,78.936975 C470.99665,85.733075 469.39965,93.695375 465.73765,99.846375 C461.98865,105.265375 456.18065,108.965375 450.00365,110.890375 C444.03365,112.733375 437.67265,113.167375 431.48065,112.477375 C420.45265,110.854375 409.55165,106.988375 400.71465,99.961375 C404.11765,95.097375 407.58565,90.271375 411.06865,85.462775 C416.08565,88.932375 421.85165,91.150375 427.72165,92.619375 C432.72865,93.776375 438.03865,94.326375 443.06565,92.994375 C445.14165,92.381375 447.38465,91.322375 448.33765,89.223375 C449.03265,87.779375 448.39665,86.038375 447.23565,85.053275 C445.65065,83.661675 443.56965,83.090375 441.61765,82.438575 C433.07365,79.862475 424.20165,78.141375 416.11265,74.209675 C411.36965,71.899875 406.93665,68.426275 404.52165,63.579775 C402.10965,58.841075 402.01365,53.177575 403.44065,48.119975 C404.59065,43.735475 407.45165,40.024175 410.75065,37.055975 C416.21065,32.369875 423.33765,30.134075 430.37565,29.566075 Z" id="Path" fill="#732DD9" fill-rule="nonzero"></path>
                <path d="M512.35365,51.372075 C506.96565,52.038175 501.92165,55.036275 498.75065,59.439975 C495.88765,63.373975 494.53365,68.380475 495.08065,73.218975 C495.67765,79.148075 499.12965,84.715975 504.19065,87.872375 C508.50565,90.666375 513.93965,91.619375 518.96265,90.547375 C523.71565,89.558375 528.05465,86.739375 530.91365,82.815575 C533.96665,78.692375 535.29565,73.359575 534.54465,68.289875 C533.72765,62.262275 529.92465,56.736875 524.60065,53.794675 C520.92065,51.691175 516.55665,50.845875 512.35365,51.372075 Z M510.59965,29.650975 C522.76865,28.308175 535.42165,32.691075 544.10065,41.326475 C552.06365,49.022675 556.71165,60.025475 556.62065,71.104775 C556.71865,82.184775 552.05665,93.177375 544.10365,100.883375 C536.78965,108.113375 526.70165,112.436375 516.41565,112.748375 C503.00165,113.351375 489.53165,106.917375 481.57265,96.107375 C473.77065,85.925375 471.26265,72.027375 474.80265,59.723675 C477.72365,49.250475 484.96065,40.088875 494.44965,34.780675 C499.39965,31.979075 504.93765,30.215875 510.59965,29.650975 Z" id="Shape" fill="#732DD9" fill-rule="nonzero"></path>
                <path d="M590.49465,30.968375 C598.45765,28.742675 607.10065,28.910575 614.96865,31.434175 C626.06765,34.933775 635.41465,43.252175 640.08365,53.683175 C642.72865,59.453875 643.80565,65.819975 643.61965,72.120975 C643.61665,84.446375 643.62765,96.774375 643.61365,109.099375 C636.27465,109.099375 628.93265,109.130375 621.59465,109.085375 C621.62265,95.966375 621.60165,82.850475 621.60565,69.730675 C621.53865,63.128475 617.65565,56.748075 611.77965,53.491875 C605.28665,49.717775 596.55665,50.138775 590.47365,54.519175 C585.50365,57.957575 582.34265,63.758275 582.27965,69.713775 C582.27265,82.843375 582.28665,95.973375 582.27265,109.099375 C574.93065,109.109375 567.58565,109.239375 560.24765,109.092375 C560.28265,95.850375 560.24765,82.607175 560.26465,69.364375 C560.38465,58.302975 565.45665,47.419875 573.86865,40.022675 C578.58665,35.797075 584.33165,32.670375 590.49465,30.968375 Z" id="Path" fill="#732DD9" fill-rule="nonzero"></path>
                <path d="M267.72765,50.417375 C271.74765,49.914475 275.92165,50.722975 279.44165,52.735175 C282.76565,54.571375 285.46365,57.464875 287.15765,60.853475 L253.08565,60.853475 C253.55465,59.905175 254.09165,58.990275 254.71465,58.134775 C257.74865,53.922075 262.57365,51.054375 267.72765,50.417375 Z M296.83365,75.865875 L309.53365,75.888475 C309.89865,73.711175 310.08865,71.504375 310.06865,69.292275 C310.15665,58.694375 305.71065,48.170575 298.09365,40.809075 C289.79165,32.548275 277.68965,28.356275 266.04965,29.640575 C260.63365,30.180875 255.33565,31.867475 250.60165,34.547575 C241.52565,39.625375 234.60265,48.388475 231.80765,58.406175 C228.42265,70.174275 230.82165,83.468475 238.28365,93.207375 C245.89765,103.547375 258.78165,109.701375 271.61265,109.125375 C281.45065,108.826375 291.10065,104.691375 298.09665,97.775375 C299.13365,96.771375 300.10665,95.702375 301.02365,94.588375 L286.80265,78.387375 C286.40365,79.114675 285.97565,79.825775 285.48065,80.493675 C282.74565,84.246575 278.59565,86.943375 274.04865,87.888375 C269.24365,88.915375 264.04665,88.002375 259.91965,85.329775 C256.40665,83.140875 253.71165,79.734875 252.27565,75.865875 L296.83365,75.865875 Z" id="Shape" fill="#732DD9" fill-rule="nonzero"></path>
            </g>
        </g>
    </g>
</svg>