<?xml version="1.0" encoding="UTF-8"?>
<svg width="18px" height="18px" viewBox="0 0 18 18" version="1.1" xmlns="http://www.w3.org/2000/svg" xmlns:xlink="http://www.w3.org/1999/xlink">
    <title>编组备份</title>
    <g id="页面-1" stroke="none" stroke-width="1" fill="none" fill-rule="evenodd">
        <g id="首页" transform="translate(-868.000000, -25.000000)" stroke="#9A9AA0" stroke-width="1.5">
            <g id="编组备份" transform="translate(869.000000, 26.000000)">
                <path d="M9.49919377,6.02027245 L2.30027003,8.42042354 C2.03342703,8.50953193 1.95420801,8.84451348 2.15267249,9.04170706 L3.24255936,10.1200836 C3.39099078,10.2661224 3.39099078,10.5037448 3.24255936,10.6506086 L0.111323563,13.7487754 C-0.0371078543,13.8956393 -0.0371078543,14.1332617 0.111323563,14.2793004 L1.73906585,15.8898521 C1.88749727,16.036716 2.12682208,16.036716 2.2752535,15.8898521 L5.40732318,12.7916853 C5.55492071,12.6448215 5.7959133,12.6448215 5.94351083,12.7916853 L6.92582661,13.7636268 C7.12512498,13.9608204 7.46451591,13.882438 7.55374154,13.6184132 L9.97951117,6.49551722 C10.0795773,6.20178955 9.79605661,5.92126313 9.49919377,6.02027245 Z" id="Stroke-1"></path>
                <line x1="10.5" y1="0" x2="10.5" y2="2" id="Stroke-3" stroke-linecap="round"></line>
                <line x1="14" y1="2" x2="13" y2="3" id="Stroke-5" stroke-linecap="round"></line>
                <line x1="7.961" y1="2.961" x2="7.039" y2="2.039" id="Stroke-7" stroke-linecap="round"></line>
                <line x1="16" y1="5.5" x2="14" y2="5.5" id="Stroke-9" stroke-linecap="round"></line>
                <line x1="13" y1="8" x2="14" y2="9" id="Stroke-11" stroke-linecap="round"></line>
            </g>
        </g>
    </g>
</svg>