<?xml version="1.0" encoding="UTF-8"?>
<svg width="1024px" height="355px" viewBox="0 0 1024 355" version="1.1" xmlns="http://www.w3.org/2000/svg" xmlns:xlink="http://www.w3.org/1999/xlink">
    <title>编组 7</title>
    <g id="页面-1" stroke="none" stroke-width="1" fill="none" fill-rule="evenodd">
        <g id="编组-7">
            <path d="M0,193.709292 C29.1626382,256.680976 85.0023811,291.544083 167.519229,298.298611 C227.051138,303.171676 274.537558,282.177893 315.359055,286.440992 C359.411232,291.041481 395.730196,320.716482 431.856775,320.716482 C484.737551,320.716482 504.780755,286.440992 581,286.440992 C656.693639,286.440992 719.811168,355 795.422752,355 C885.530357,355 961.722773,324.670345 1024,264.011034 L1024,0 L0,0 L0,193.709292 Z" id="路径-2" fill="#17181D"></path>
            <path d="M0,106.101257 C51.6329715,146.180305 118.707881,169.594209 201.224729,176.34297 C325,186.466112 342.848047,148.665677 412.45177,148.665677 C467.016549,148.665677 502.872168,203.433854 603.484614,216.946483 C671.625051,226.097999 743.162537,197.217588 774.231849,197.217588 C837.186187,197.217588 838.167622,242 929,242 C959.869643,242 991.53631,233.648828 1024,216.946483 L1024,0 L0,0 L0,106.101257 Z" id="路径-2" fill="#1C1D24"></path>
        </g>
    </g>
</svg>