<?xml version="1.0" encoding="UTF-8"?>
<svg width="30px" height="30px" viewBox="0 0 30 30" version="1.1" xmlns="http://www.w3.org/2000/svg" xmlns:xlink="http://www.w3.org/1999/xlink">
    <title>编组 24</title>
    <g id="页面-1" stroke="none" stroke-width="1" fill="none" fill-rule="evenodd">
        <g id="首页" transform="translate(-739.000000, -2464.000000)">
            <g id="编组-24" transform="translate(739.000000, 2464.000000)">
                <rect id="矩形备份-10" x="0" y="0" width="30" height="30"></rect>
                <g id="discord" transform="translate(5.000000, 7.000000)" fill="#31333F" fill-rule="nonzero">
                    <path d="M16.9568918,1.28696703 C16.9513329,1.27619559 16.9421208,1.26775511 16.9309053,1.26315743 C15.6341924,0.668210977 14.2657885,0.243967579 12.8599386,0.00104413252 C12.8337419,-0.00382610741 12.8073748,0.00865130654 12.7945302,0.0319966226 C12.6081963,0.370191341 12.4390464,0.717573029 12.2877257,1.07281662 C10.7722963,0.842775594 9.23082602,0.842775594 7.71539663,1.07281662 C7.5630741,0.716670973 7.39121355,0.369202682 7.2005989,0.0319966226 C7.18721939,0.00920979347 7.16125887,-0.00306883256 7.13515649,0.00104413252 C5.72915802,0.243457587 4.36066524,0.667732882 3.06412173,1.26319144 C3.0530228,1.26789673 3.04365776,1.27593069 3.03731891,1.28618472 C0.444486643,5.15823918 -0.26578797,8.93508923 0.0826486323,12.6651704 C0.0846290882,12.683641 0.0940187057,12.7005178 0.108669132,12.7119393 C1.61845134,13.8298185 3.307161,14.6831042 5.10273436,15.2353836 C5.1286314,15.243152 5.15662715,15.2339784 5.17290467,15.2123903 C5.55855489,14.6876538 5.90026993,14.1320042 6.19457494,13.5510919 C6.20275464,13.5349679 6.2036449,13.5161146 6.19702098,13.4992915 C6.19039706,13.4824684 6.17689195,13.4692832 6.15991496,13.4630644 C5.62105529,13.2568846 5.09937619,13.0083398 4.5997734,12.7197624 C4.58134292,12.7089278 4.56952537,12.6896195 4.56826234,12.6682776 C4.5669993,12.6469357 4.57645696,12.6263684 4.59348086,12.6134355 C4.69860937,12.5349082 4.80191381,12.4539681 4.90331189,12.3706796 C4.92145198,12.355739 4.94649046,12.3523654 4.96793796,12.3619721 C8.24104474,13.8557528 11.7846287,13.8557528 15.0189938,12.3619721 C15.0405066,12.3517459 15.0659863,12.3548315 15.0844362,12.3698973 C15.1859495,12.4536261 15.289519,12.5348304 15.3950496,12.6134355 C15.4121645,12.6262357 15.4217716,12.6467258 15.4206655,12.6680693 C15.4195594,12.6894127 15.4078857,12.7088 15.3895393,12.7197624 C14.8910726,13.0107673 14.3689206,13.2591565 13.8286495,13.4622821 C13.8116808,13.4687394 13.7982686,13.4821229 13.7917749,13.4990778 C13.7852813,13.5160326 13.7863219,13.5349515 13.7946357,13.5510919 C14.0938681,14.1287736 14.4350799,14.6837232 14.8155237,15.2114719 C14.8313592,15.2336734 14.8596175,15.2432617 14.885694,15.2352815 C16.684485,14.6848746 18.3761462,13.8315095 19.8878205,12.7119393 C19.9027108,12.7010721 19.9121935,12.6843131 19.913841,12.6659527 C20.3309853,8.35359059 19.2154712,4.60769303 16.9568918,1.28696703 L16.9568918,1.28696703 Z M6.68338619,10.3939379 C5.69794054,10.3939379 4.88596489,9.489615 4.88596489,8.37899884 C4.88596489,7.26838268 5.68219218,6.36399173 6.68338619,6.36399173 C7.69240335,6.36399173 8.49652183,7.27623985 8.48077348,8.37893081 C8.48077348,9.489615 7.68451217,10.3939379 6.68338619,10.3939379 L6.68338619,10.3939379 Z M13.3289878,10.3939379 C12.3435762,10.3939379 11.5316006,9.489615 11.5316006,8.37899884 C11.5316006,7.26838268 12.3278279,6.36399173 13.3289878,6.36399173 C14.338073,6.36399173 15.1421575,7.27623985 15.1264092,8.37893081 C15.1264092,9.489615 14.338073,10.3939379 13.3289878,10.3939379 Z" id="形状"></path>
                </g>
            </g>
        </g>
    </g>
</svg>