<svg xmlns="http://www.w3.org/2000/svg" width="30" height="30" viewBox="0 0 30 30">
  <g id="组_50" data-name="组 50" transform="translate(6482 -1849)">
    <g id="编组-18" transform="translate(-6482 1849)">
      <rect id="矩形" width="30" height="30" fill="none"/>
      <g id="github" transform="translate(5 5)">
        <path id="路径" d="M10,0A10,10,0,0,0,6.7,19.433c.525.132.445-.241.445-.5V17.2c-3.032.355-3.155-1.651-3.358-1.986-.411-.7-1.383-.88-1.093-1.215.69-.355,1.394.089,2.21,1.294a2.113,2.113,0,0,0,2.324.581A2.819,2.819,0,0,1,8,14.519C4.86,13.956,3.55,12.039,3.55,9.76A4.4,4.4,0,0,1,4.63,6.817a3.9,3.9,0,0,1,.109-2.681A4.575,4.575,0,0,1,7.492,5.148a9.707,9.707,0,0,1,2.523-.3,9.717,9.717,0,0,1,2.536.311,4.481,4.481,0,0,1,2.71-.981,3.925,3.925,0,0,1,.123,2.637,4.4,4.4,0,0,1,1.093,2.956c0,2.284-1.318,4.2-4.469,4.757a2.849,2.849,0,0,1,.851,2.033V19.07c.018.2,0,.4.335.4A10,10,0,0,0,10,0Z" fill="#6c718f"/>
      </g>
    </g>
  </g>
</svg>
