<?xml version="1.0" encoding="UTF-8"?>
<svg width="30px" height="30px" viewBox="0 0 30 30" version="1.1" xmlns="http://www.w3.org/2000/svg" xmlns:xlink="http://www.w3.org/1999/xlink">
    <title>编组 23</title>
    <g id="页面-1" stroke="none" stroke-width="1" fill="none" fill-rule="evenodd">
        <g id="首页" transform="translate(-772.000000, -2464.000000)">
            <g id="编组-23" transform="translate(772.000000, 2464.000000)">
                <rect id="矩形备份-9" x="0" y="0" width="30" height="30"></rect>
                <g id="reddit" transform="translate(5.000000, 6.000000)" fill="#31333F" fill-rule="nonzero">
                    <path d="M19.9999224,8.70849682 C19.9999224,7.33118582 18.8833117,6.21465465 17.5060007,6.21465465 C16.9624418,6.2202938 16.4361398,6.40625386 16.0096954,6.74334918 C14.4670369,5.84465505 12.7344537,5.32180451 10.9521835,5.21711778 L11.5706564,1.67586193 C11.5858238,1.55544433 11.6886999,1.46542773 11.8100652,1.46637919 L11.8798928,1.46637919 L15.0121585,2.42401458 C15.1080634,3.37409996 15.8637494,4.12300994 16.81466,4.21035369 C17.7655707,4.29769744 18.6450398,3.69898092 18.9124156,2.78226387 C19.1797914,1.86554682 18.760093,0.887906456 17.9113292,0.450345145 C17.0625653,0.0127838342 16.0227569,0.238007974 15.431124,0.987561495 L12.2789076,0.0698275649 C12.1194964,0.0264020377 11.9553083,0.00294659933 11.7901145,0 C10.9429999,0.00198215402 10.2195688,0.611851423 10.0743511,1.44642844 L9.43592749,5.21711778 C7.53859491,5.27235447 5.68448939,5.79671333 4.03925305,6.74334918 C3.61280869,6.40625386 3.08650664,6.2202938 2.54294776,6.21465465 C1.45118168,6.18875936 0.470573888,6.87899619 0.126606213,7.91548545 C-0.217361462,8.95197471 0.156010718,10.0915412 1.04664246,10.7235213 C1.03676047,10.8829742 1.03676047,11.042886 1.04664246,11.202339 C1.04664246,14.504186 5.03678993,17.1875601 10.0244742,17.1875601 C15.0121585,17.1875601 19.002306,14.504186 19.002306,11.202339 C19.012188,11.042886 19.012188,10.8829742 19.002306,10.7235213 C19.6359195,10.2483505 20.0061599,9.50046488 19.9999224,8.70849682 Z M5.03678993,9.70603367 C5.03678993,8.87964707 5.70670862,8.20972837 6.53309522,8.20972837 C7.35948182,8.20972837 8.02940052,8.87964707 8.02940052,9.70603367 C8.02940052,10.5324203 7.35948182,11.202339 6.53309522,11.202339 C5.70670862,11.202339 5.03678993,10.5324203 5.03678993,9.70603367 L5.03678993,9.70603367 Z M13.2265676,14.1350973 C13.1912111,14.2714352 13.1009149,14.3870143 12.9771833,14.4543092 C11.1317402,15.4385455 8.91720832,15.4385455 7.07176513,14.4543092 C6.94803354,14.3870143 6.8577374,14.2714352 6.8223809,14.1350973 C6.79352528,13.9967747 6.82234687,13.8526667 6.90218384,13.7360826 L7.19146955,13.3270925 C7.34025847,13.127683 7.61509561,13.0718567 7.82989313,13.1974127 C9.21671317,13.8653484 10.8322353,13.8653484 12.2190553,13.1974127 C12.4411703,13.0779401 12.7177175,13.1470769 12.8574789,13.3570186 L13.1467646,13.7660087 C13.2187929,13.8746423 13.2472834,14.006411 13.2265676,14.1350973 L13.2265676,14.1350973 Z M13.5158533,11.202339 C12.6894667,11.202339 12.019548,10.5324203 12.019548,9.70603367 C12.019548,8.87964707 12.6894667,8.20972837 13.5158533,8.20972837 C14.3422398,8.20972837 15.0121585,8.87964707 15.0121585,9.70603367 C15.0121585,10.5324203 14.3422398,11.202339 13.5158533,11.202339 Z" id="形状"></path>
                </g>
            </g>
        </g>
    </g>
</svg>