<svg xmlns="http://www.w3.org/2000/svg" width="30" height="30" viewBox="0 0 30 30">
  <g id="组_52" data-name="组 52" transform="translate(6402 -1849)">
    <g id="编组-20" transform="translate(-6402 1849)">
      <rect id="矩形备份-6" width="30" height="30" fill="none"/>
      <g id="medium" transform="translate(5 6)">
        <path id="路径" d="M18.4,1.87,20,.336V0H14.471l-3.94,9.854L6.049,0H.253V.336L2.117,2.591a.79.79,0,0,1,.253.656v8.862a1.007,1.007,0,0,1-.268.878L0,15.547v.331H5.953v-.336l-2.1-2.552a1.041,1.041,0,0,1-.289-.878V4.445L8.792,15.883H9.4L13.893,4.445v9.112c0,.24,0,.289-.156.448l-1.617,1.57v.336h7.844v-.336L18.4,14.042a.471.471,0,0,1-.177-.448V2.318A.471.471,0,0,1,18.4,1.87Z" fill="#6c718f"/>
      </g>
    </g>
  </g>
</svg>
