<?xml version="1.0" encoding="UTF-8"?>
<svg width="30px" height="30px" viewBox="0 0 30 30" version="1.1" xmlns="http://www.w3.org/2000/svg" xmlns:xlink="http://www.w3.org/1999/xlink">
    <title>编组 19</title>
    <g id="页面-1" stroke="none" stroke-width="1" fill="none" fill-rule="evenodd">
        <g id="首页" transform="translate(-905.000000, -2464.000000)">
            <g id="编组-19" transform="translate(905.000000, 2464.000000)">
                <rect id="矩形备份-5" x="0" y="0" width="30" height="30"></rect>
                <g id="telegram" transform="translate(5.000000, 6.000000)" fill="#31333F" fill-rule="nonzero">
                    <path d="M7.52400201,15.7671813 L7.83470617,11.0733292 L16.3568773,3.39449799 C16.7341609,3.0505041 16.2792012,2.88405545 15.7798552,3.18366302 L5.26030032,9.83051262 L0.710703789,8.38795761 C-0.265794989,8.11054318 -0.276891548,7.433652 0.932635319,6.9454026 L18.6538687,0.109911233 C19.4639188,-0.256275805 20.2406792,0.309649618 19.929975,1.55246622 L16.9117061,15.7671813 C16.7008711,16.7769698 16.0905594,17.0210944 15.2472196,16.5550382 L10.6532367,13.1594857 L8.44501789,15.301125 C8.18979663,15.5563463 7.97896166,15.7671813 7.52400201,15.7671813 Z" id="路径"></path>
                </g>
            </g>
        </g>
    </g>
</svg>