<?xml version="1.0" encoding="UTF-8"?>
<svg width="30px" height="30px" viewBox="0 0 30 30" version="1.1" xmlns="http://www.w3.org/2000/svg" xmlns:xlink="http://www.w3.org/1999/xlink">
    <title>编组 18</title>
    <g id="页面-1" stroke="none" stroke-width="1" fill="none" fill-rule="evenodd">
        <g id="首页" transform="translate(-938.000000, -2464.000000)">
            <g id="编组-18" transform="translate(938.000000, 2464.000000)">
                <rect id="矩形" x="0" y="0" width="30" height="30"></rect>
                <g id="github" transform="translate(5.000000, 5.000000)" fill="#31333F" fill-rule="nonzero">
                    <path d="M10.0011172,-2.77834831e-16 C4.4754776,-0.00223355611 0,4.47100966 0,9.99218047 C0,14.3581731 2.79968718,18.0694903 6.69869287,19.4324665 C7.22377387,19.5642953 7.14333593,19.1911527 7.14333595,18.9364325 L7.14333595,17.2047824 C4.1112725,17.56005 3.98838118,15.5535703 3.78505195,15.2184122 C3.37392471,14.5168146 2.40196626,14.3380636 2.6924366,14.0029055 C3.38286226,13.6476379 4.08669423,14.092281 4.90224555,15.2966157 C5.49212379,16.1702611 6.64283319,16.0227916 7.22600826,15.8775564 C7.35336834,15.3524754 7.62596358,14.8832541 8.00134063,14.519049 C4.85979221,13.9559834 3.55044129,12.0388792 3.55044129,9.75980421 C3.55044129,8.65378253 3.9146464,7.63713634 4.62965032,6.81711623 C4.17383532,5.46531197 4.67210368,4.30789939 4.73913529,4.13585158 C6.03731426,4.01966344 7.38688414,5.06535666 7.49190034,5.14802899 C8.22924813,4.94916852 9.07161211,4.84415233 10.0145235,4.84415231 C10.9619037,4.84415231 11.8065021,4.95363729 12.550553,5.15473215 C12.8030388,4.96257486 14.0542956,4.06435118 15.2608647,4.17383616 C15.3256619,4.34588397 15.8127583,5.47648389 15.383756,6.81041308 C16.1076975,7.63266757 16.4763713,8.65825131 16.4763713,9.76650737 C16.4763713,12.0500511 15.1580829,13.9693897 12.0075969,14.5235178 C12.5527032,15.0595934 12.8594623,15.7922726 12.8588984,16.5568101 L12.8588984,19.0704957 C12.8767736,19.2715906 12.8588984,19.4704511 13.1940565,19.4704511 C17.1511563,18.1365219 20,14.3983921 20,9.99441486 C20,4.47100966 15.522288,-2.77834831e-16 10.0011172,-2.77834831e-16 L10.0011172,-2.77834831e-16 Z" id="路径"></path>
                </g>
            </g>
        </g>
    </g>
</svg>