<svg xmlns="http://www.w3.org/2000/svg" width="30" height="30" viewBox="0 0 30 30">
  <g id="组_47" data-name="组 47" transform="translate(6602 -1849)">
    <g id="编组-24" transform="translate(-6602 1849)">
      <rect id="矩形备份-10" width="30" height="30" fill="none"/>
      <g id="discord" transform="translate(5 7)">
        <path id="形状" d="M16.957,1.287a.051.051,0,0,0-.026-.024A16.5,16.5,0,0,0,12.86,0a.062.062,0,0,0-.065.031,11.481,11.481,0,0,0-.507,1.041,15.233,15.233,0,0,0-4.572,0A10.531,10.531,0,0,0,7.2.032.064.064,0,0,0,7.135,0,16.452,16.452,0,0,0,3.064,1.263a.058.058,0,0,0-.027.023A16.867,16.867,0,0,0,.083,12.665a.069.069,0,0,0,.026.047A16.587,16.587,0,0,0,5.1,15.235a.065.065,0,0,0,.07-.023,11.841,11.841,0,0,0,1.022-1.661.063.063,0,0,0-.035-.088A10.936,10.936,0,0,1,4.6,12.72a.064.064,0,0,1-.006-.106q.158-.118.31-.243a.062.062,0,0,1,.065-.009,11.832,11.832,0,0,0,10.051,0,.061.061,0,0,1,.065.008q.152.126.311.244a.064.064,0,0,1-.006.106,10.246,10.246,0,0,1-1.561.743.064.064,0,0,0-.034.089,13.317,13.317,0,0,0,1.021,1.66.063.063,0,0,0,.07.024,16.532,16.532,0,0,0,5-2.523.064.064,0,0,0,.026-.046A16.755,16.755,0,0,0,16.957,1.287ZM6.683,10.394a1.922,1.922,0,0,1-1.8-2.015,1.911,1.911,0,0,1,1.8-2.015,1.9,1.9,0,0,1,1.8,2.015,1.911,1.911,0,0,1-1.8,2.015Zm6.646,0a1.922,1.922,0,0,1-1.8-2.015,1.911,1.911,0,0,1,1.8-2.015,1.9,1.9,0,0,1,1.8,2.015A1.906,1.906,0,0,1,13.329,10.394Z" fill="#6c718f"/>
      </g>
    </g>
  </g>
</svg>
