<?xml version="1.0" encoding="UTF-8"?>
<svg width="30px" height="30px" viewBox="0 0 30 30" version="1.1" xmlns="http://www.w3.org/2000/svg" xmlns:xlink="http://www.w3.org/1999/xlink">
    <title>编组 21</title>
    <g id="页面-1" stroke="none" stroke-width="1" fill="none" fill-rule="evenodd">
        <g id="首页" transform="translate(-839.000000, -2464.000000)">
            <g id="编组-21" transform="translate(839.000000, 2464.000000)">
                <rect id="矩形备份-7" x="0" y="0" width="30" height="30"></rect>
                <g id="instagram-fill" transform="translate(5.000000, 4.000000)" fill="#31333F" fill-rule="nonzero">
                    <path d="M9.99731219,6.66512282 C8.16110573,6.66512282 6.66262118,8.16360738 6.66262118,9.99981383 C6.66262118,11.8360203 8.16110573,13.3345048 9.99731219,13.3345048 C11.8335186,13.3345048 13.3320032,11.8360203 13.3320032,9.99981383 C13.3320032,8.16360738 11.8335186,6.66512282 9.99731219,6.66512282 Z M19.9988836,9.99981383 C19.9988836,8.61890653 20.0113918,7.25050744 19.9338408,5.87210178 C19.8562899,4.27104983 19.4910499,2.85011623 18.3202807,1.67934699 C17.1470098,0.506076115 15.7285778,0.143337783 14.1275259,0.0657868292 C12.7466186,-0.0117641244 11.3782195,0.000744093892 9.99981383,0.000744093892 C8.61890653,0.000744093892 7.25050744,-0.0117641244 5.87210178,0.0657868292 C4.27104983,0.143337783 2.85011623,0.508577758 1.67934699,1.67934699 C0.506076115,2.85261787 0.143337783,4.27104983 0.0657868292,5.87210178 C-0.0117641244,7.25300908 0.000744093892,8.62140817 0.000744093892,9.99981383 C0.000744093892,11.3782195 -0.0117641244,12.7491202 0.0657868292,14.1275259 C0.143337783,15.7285778 0.508577758,17.1495114 1.67934699,18.3202807 C2.85261787,19.4935515 4.27104983,19.8562899 5.87210178,19.9338408 C7.25300908,20.0113918 8.62140817,19.9988836 9.99981383,19.9988836 C11.3807211,19.9988836 12.7491202,20.0113918 14.1275259,19.9338408 C15.7285778,19.8562899 17.1495114,19.4910499 18.3202807,18.3202807 C19.4935515,17.1470098 19.8562899,15.7285778 19.9338408,14.1275259 C20.0138934,12.7491202 19.9988836,11.3807211 19.9988836,9.99981383 Z M9.99731219,15.130685 C7.15794662,15.130685 4.86644103,12.8391794 4.86644103,9.99981383 C4.86644103,7.16044827 7.15794662,4.86894267 9.99731219,4.86894267 C12.8366777,4.86894267 15.1281833,7.16044827 15.1281833,9.99981383 C15.1281833,12.8391794 12.8366777,15.130685 9.99731219,15.130685 Z M15.3383214,5.85709192 C14.6753858,5.85709192 14.1400341,5.32174017 14.1400341,4.6588046 C14.1400341,3.99586903 14.6753858,3.46051728 15.3383214,3.46051728 C16.001257,3.46051728 16.5366087,3.99586903 16.5366087,4.6588046 C16.5341071,5.32424182 16.001257,5.85709192 15.3383214,5.85709192 Z" id="形状"></path>
                </g>
            </g>
        </g>
    </g>
</svg>