<svg xmlns="http://www.w3.org/2000/svg" width="30" height="30" viewBox="0 0 30 30">
  <g id="组_51" data-name="组 51" transform="translate(6442 -1849)">
    <g id="编组-22" transform="translate(-6442 1849)">
      <rect id="矩形备份-8" width="30" height="30" fill="none"/>
      <g id="twitter" transform="translate(5 6)">
        <path id="路径" d="M20,1.93a8.22,8.22,0,0,1-2.36.635,4.089,4.089,0,0,0,1.8-2.259,8.092,8.092,0,0,1-2.6.99A4.1,4.1,0,0,0,9.749,4.1a4.707,4.707,0,0,0,.1.94A11.647,11.647,0,0,1,1.4.75,4.111,4.111,0,0,0,2.668,6.235,4.134,4.134,0,0,1,.815,5.713v.05A4.1,4.1,0,0,0,4.1,9.787a4.341,4.341,0,0,1-1.079.139,5.452,5.452,0,0,1-.774-.062,4.106,4.106,0,0,0,3.831,2.843A8.215,8.215,0,0,1,.99,14.46a8.37,8.37,0,0,1-.99-.05,11.605,11.605,0,0,0,6.295,1.839A11.583,11.583,0,0,0,17.957,4.584c0-.178,0-.356-.012-.534A8.828,8.828,0,0,0,20,1.93Z" fill="#6c718f"/>
      </g>
    </g>
  </g>
</svg>
