<?xml version="1.0" encoding="UTF-8"?>
<svg width="30px" height="30px" viewBox="0 0 30 30" version="1.1" xmlns="http://www.w3.org/2000/svg" xmlns:xlink="http://www.w3.org/1999/xlink">
    <title>编组 22</title>
    <g id="页面-1" stroke="none" stroke-width="1" fill="none" fill-rule="evenodd">
        <g id="首页" transform="translate(-805.000000, -2464.000000)">
            <g id="编组-22" transform="translate(805.000000, 2464.000000)">
                <rect id="矩形备份-8" x="0" y="0" width="30" height="30"></rect>
                <g id="twitter" transform="translate(5.000000, 6.000000)" fill="#31333F" fill-rule="nonzero">
                    <path d="M20,1.93005648 C19.2645115,2.24732604 18.4641269,2.47566398 17.6397068,2.5645956 C18.490566,2.05744502 19.1371229,1.25706045 19.4423747,0.305251773 C18.6564115,0.773945439 17.7670953,1.11765413 16.8417258,1.29551737 C16.0918159,0.495132797 15.02704,0 13.8468934,0 C11.5755318,0 9.74882827,1.84112486 9.74882827,4.10046869 C9.74882827,4.41773825 9.78728518,4.73500781 9.84977767,5.04025958 C6.44874414,4.86239635 3.41545487,3.23759164 1.39887033,0.749909867 C1.04314385,1.36041341 0.841245043,2.05744502 0.841245043,2.81937267 C0.841245043,4.24227857 1.56471578,5.49693546 2.66794856,6.23482754 C1.99495253,6.20838841 1.36041341,6.01850739 0.814805913,5.71325562 L0.814805913,5.76373032 C0.814805913,7.75627929 2.22329047,9.40752313 4.10046869,9.78728518 C3.75676,9.8762168 3.38901574,9.9266915 3.02127148,9.9266915 C2.75447663,9.9266915 2.50210311,9.90025237 2.24732604,9.86419901 C2.76649441,11.4890037 4.27833193,12.6691503 6.07859632,12.7076073 C4.67011177,13.81084 2.90590073,14.4598005 0.990265593,14.4598005 C0.646556904,14.4598005 0.329287345,14.4477827 -4.3720452e-16,14.4093258 C1.81708929,15.5750511 3.97308016,16.2480471 6.29491648,16.2480471 C13.8324721,16.2480471 17.9569763,10.0036053 17.9569763,4.5835837 C17.9569763,4.40572047 17.9569763,4.22785723 17.9449585,4.04999399 C18.7429396,3.46592958 19.4423747,2.74245884 20,1.93005648 Z" id="路径"></path>
                </g>
            </g>
        </g>
    </g>
</svg>