<?xml version="1.0" encoding="UTF-8"?>
<svg width="134px" height="48px" viewBox="0 0 134 48" version="1.1" xmlns="http://www.w3.org/2000/svg" xmlns:xlink="http://www.w3.org/1999/xlink">
    <title>Logo备份</title>
    <defs>
        <linearGradient x1="100%" y1="-2.98023684e-06%" x2="0.106115882%" y2="100.106053%" id="linearGradient-1">
            <stop stop-color="#A9FFE0" offset="39.5833%"></stop>
            <stop stop-color="#86D5FF" offset="100%"></stop>
        </linearGradient>
        <linearGradient x1="100%" y1="-2.98023684e-06%" x2="0.106115882%" y2="100.106053%" id="linearGradient-2">
            <stop stop-color="#24262E" offset="39.5833%"></stop>
            <stop stop-color="#24262E" offset="100%"></stop>
        </linearGradient>
    </defs>
    <g id="页面-1" stroke="none" stroke-width="1" fill="none" fill-rule="evenodd">
        <g id="首页" transform="translate(-538.000000, -2316.000000)" fill-rule="nonzero">
            <g id="编组" transform="translate(126.000000, 2316.000000)">
                <g id="Logo备份" transform="translate(412.000000, 0.000000)">
                    <path d="M36.4800909,0 C42.842312,0 48,5.15767579 48,11.52 L48,11.52 L48,36.48 C48,42.8422737 42.842312,48 36.4800909,48 L36.4800909,48 L11.5200101,48 C5.15768803,48 0,42.8422737 0,36.48 L0,36.48 L0,11.52 C0,5.15767579 5.15768803,0 11.5200101,0 L11.5200101,0 Z M24.0000631,8.64 C15.5169754,8.64 8.64004543,15.5168842 8.64004543,24 C8.64004543,32.4831158 15.5169754,39.36 24.0000631,39.36 C32.4831508,39.36 39.3600681,32.4831158 39.3600681,24 C39.3600681,15.5168842 32.4831508,8.64 24.0000631,8.64 Z M21.2899267,21.3463579 L21.2899267,26.6533895 L26.7104518,26.6533895 L26.7104518,32.1315789 L21.2892958,32.1315789 L21.2892958,26.8245474 L15.8687708,26.8245474 L15.8687708,21.3463579 L21.2899267,21.3463579 Z M32.1324911,21.3463579 L32.1324911,26.8245474 L26.7113351,26.8245474 L26.7113351,21.3463579 L32.1324911,21.3463579 Z M26.7104518,15.8681684 L26.7104518,21.3463579 L21.2892958,21.3463579 L21.2892958,15.8681684 L26.7104518,15.8681684 Z" id="形状结合" fill="url(#linearGradient-2)"></path>
                    <path d="M59,23.9999807 C59,20.7940299 59.5950377,17.9925237 60.7854922,15.5954621 C62.0046248,13.168537 63.7321292,11.2958632 65.967374,9.97753077 C68.2316758,8.65917263 70.887995,8 73.9363317,8 C76.3167353,8 78.4506594,8.47939945 80.337346,9.43819834 C82.2244115,10.3969972 83.748643,11.7453219 84.9099141,13.4831336 C86.0711852,15.2210097 86.7679226,17.2284297 87,19.5056511 L80.468229,19.5056511 C80.0908664,17.7079193 79.2925557,16.2995716 78.0730442,15.2808654 C76.8829687,14.2321671 75.3879206,13.7078823 73.5878998,13.7078823 C71.1492558,13.7078823 69.218731,14.6516722 67.7961991,16.5393807 C66.3736673,18.4269605 65.662654,20.9138701 65.662654,23.9999807 C65.662654,27.0562278 66.3736673,29.5431374 67.7961991,31.4607094 C69.218731,33.3482892 71.1492558,34.2920791 73.5878998,34.2920791 C75.3879206,34.2920791 76.8829687,33.7827261 78.0730442,32.7640199 C79.2925557,31.7153216 80.0908664,30.2921708 80.468229,28.4943103 L87,28.4943103 C86.7679226,30.7715317 86.0711852,32.7790804 84.9099141,34.5168278 C83.748643,36.2547039 82.2244115,37.6029384 80.337346,38.5617888 C78.4506594,39.5206392 76.3167353,40 73.9363317,40 C70.887995,40 68.2316758,39.3408145 65.967374,38.0224435 C63.7321292,36.7040725 62.0046248,34.8464849 60.7854922,32.4494233 C59.5950377,30.0224982 59,27.2059315 59,23.9999807 Z" id="路径" fill="#24262E"></path>
                    <polygon id="路径" fill="#24262E" points="91 40 91 9 97.3086079 9 97.3086079 34.2871305 109 34.2871305 109 40"></polygon>
                    <polygon id="路径" fill="#24262E" points="105 9 112.050438 9 119.499678 31.9400101 127.12645 9 134 9 123.49066 40 115.553337 40"></polygon>
                </g>
            </g>
        </g>
    </g>
</svg>