<?xml version="1.0" encoding="UTF-8"?>
<svg width="177px" height="48px" viewBox="0 0 177 48" version="1.1" xmlns="http://www.w3.org/2000/svg" xmlns:xlink="http://www.w3.org/1999/xlink">
    <title>编组 26</title>
    <g id="页面-1" stroke="none" stroke-width="1" fill="none" fill-rule="evenodd">
        <g id="首页" transform="translate(-721.000000, -2316.000000)" fill="#24262E">
            <g id="编组" transform="translate(126.000000, 2316.000000)">
                <g id="编组-26" transform="translate(595.000000, 0.000000)">
                    <g id="Logo备份-2">
                        <path d="M31.6802566,31.0795964 C35.6481888,34.9724199 42.0653534,34.973606 46.0318778,31.0823243 C49.9984021,27.1910426 49.9812721,20.8801188 46.0290619,17.0027138 C42.0768516,13.1254274 35.6912484,13.1242414 31.7248414,16.9534931 C35.6281257,13.0622114 35.6268351,6.79770928 31.6746248,2.92041101 C27.7065752,-0.97240067 21.2894106,-0.973622292 17.3228863,2.9176594 C13.3722013,6.79345139 13.3576525,13.0734788 17.2941408,16.9663024 C13.3260912,13.1044345 6.92473075,13.1187856 2.97404575,16.9945301 C-0.992443391,20.8858118 -0.991187976,27.1813171 2.97684991,31.0741406 C6.94487605,34.9669642 13.3619937,34.9681502 17.328518,31.0768685 C21.279203,27.201124 21.2937518,20.9210372 17.3573808,17.0283323 C21.3095911,20.8745444 27.6635156,20.8757305 31.63004,17.0464787 C27.7109163,20.9223419 27.727929,27.20231 31.6802566,31.0795964 Z" id="路径"></path>
                        <path d="M17.9302905,45.0697064 C21.8362458,48.9756524 28.1679308,48.9769628 32.0723831,45.0724464 C35.9769511,41.1679299 35.9756793,34.8363588 32.069724,30.9302936 C28.163653,27.0243476 21.8319681,27.0230372 17.9275157,30.9275536 C14.0230633,34.8320701 14.0243351,41.1636412 17.9302905,45.0697064 Z" id="路径" fill-rule="nonzero"></path>
                    </g>
                    <g id="sakura-text-logo备份" transform="translate(66.000000, 11.000000)" fill-rule="nonzero">
                        <path d="M15.5984375,11.3719982 C14.9900406,8.09330789 12.4592603,6 8.07906533,6 C3.57717958,6 0.511024838,8.29507964 0.523192776,11.8764512 C0.511024838,14.7010899 2.19011004,16.5674135 5.77944613,17.3366934 L8.96727682,18.0302172 C10.6828601,18.4211899 11.4858481,19.1399263 11.4858481,20.2370883 C11.4858481,21.5611636 10.0988357,22.5573569 8.00606227,22.5573569 C5.98629194,22.5573569 4.67222546,21.6494669 4.2950468,19.9092063 L0,20.3379387 C0.54752751,23.8940976 3.43117346,26 8.01822564,26 C12.6904214,26 15.9877795,23.4905778 16,19.820903 C15.9877795,17.0592366 14.2722305,15.3695195 10.7436884,14.575027 L7.55586913,13.8688377 C5.65777817,13.4274398 4.90340943,12.7465815 4.9155728,11.6242069 C4.90340943,10.3127261 6.30264233,9.40478874 8.13990502,9.40478874 C10.1718273,9.40478874 11.2425807,10.5523286 11.5832693,11.826026 L15.5984375,11.3719982 Z" id="路径"></path>
                        <path d="M25.5946854,26 C28.6868097,26 30.5343766,24.5759677 31.381143,22.9502429 L31.5350567,22.9502429 L31.5350567,25.6093907 L36,25.6093907 L36,12.6541038 C36,7.53748879 31.7531614,6 27.9939571,6 C23.8497276,6 20.6678804,7.81474804 19.6414276,11.3434215 L23.9781095,11.9483572 C24.4399711,10.6250884 25.7485991,9.49086646 28.0196094,9.49086646 C30.1751242,9.49086646 31.3554907,10.574683 31.3554907,12.477608 L31.3554907,12.5531983 C31.3554907,13.8639042 29.9570195,13.9269554 26.4799904,14.2923679 C22.6565951,14.6956347 19,15.8173056 19,20.1777686 C19,23.9836659 21.8354811,26 25.5946854,26 Z M26.8007042,22.6477632 C24.8634145,22.6477632 23.4777092,21.7781784 23.4777092,20.10206 C23.4777092,18.3503512 25.0302146,17.6194079 27.1086521,17.3295858 C28.3275573,17.1657475 30.7652472,16.8632678 31.3682566,16.3844106 L31.3682566,18.6654885 C31.3682566,20.820464 29.597767,22.6477632 26.8007042,22.6477632 Z" id="形状"></path>
                        <polygon id="路径" points="41 26 45.4051187 26 45.4051187 19.4491755 47.0113621 17.6591745 52.730763 26 58 26 50.3335058 14.9170326 57.5740519 6.5 52.4265797 6.5 45.709302 14.3329972 45.4051187 14.3329972 45.4051187 0 41 0"></polygon>
                        <path d="M72.4108342,17.8676632 C72.4108342,20.7250017 70.293792,22.141464 68.2655201,22.141464 C66.0597076,22.141464 64.5891658,20.6394959 64.5891658,18.2583996 L64.5891658,7 L60,7 L60,18.9422169 C60,23.4480067 62.6622778,26 66.4907079,26 C69.4064453,26 71.4600631,24.5225603 72.3475288,22.4222807 L72.5502964,22.4222807 L72.5502964,25.7558614 L77,25.7558614 L77,7 L72.4108342,7 L72.4108342,17.8676632 Z" id="路径"></path>
                        <path d="M82,25 L86.5456153,25 L86.5456153,13.9878498 C86.5456153,11.6097061 88.3915606,9.92682746 90.8903819,9.92682746 C91.6564121,9.92682746 92.6106789,10.0609765 93,10.1829229 L93,6.1219464 C92.5855728,6.04877627 91.8698727,6 91.3675153,6 C89.1574729,6 87.3116455,7.21950979 86.6084394,9.3902427 L86.4074729,9.3902427 L86.4074729,6.26829811 L82,6.26829811 L82,25 Z" id="路径"></path>
                        <path d="M100.594759,26 C103.686741,26 105.534295,24.5759677 106.381176,22.9502429 L106.535088,22.9502429 L106.535088,25.6093907 L111,25.6093907 L111,12.6541038 C111,7.53748879 106.753191,6 102.994014,6 C98.8498137,6 95.6679891,7.81474804 94.6415435,11.3434215 L98.9780742,11.9483572 C99.440053,10.6250884 100.748672,9.49086646 103.019666,9.49086646 C105.175045,9.49086646 106.355403,10.574683 106.355403,12.477608 L106.355403,12.5531983 C106.355403,13.8639042 104.956942,13.9269554 101.480058,14.2923679 C97.6565692,14.6956347 94,15.8173056 94,20.1777686 C94,23.9836659 96.835461,26 100.594759,26 Z M101.800769,22.6477632 C99.863373,22.6477632 98.4777979,21.7781784 98.4777979,20.10206 C98.4777979,18.3503512 100.030172,17.6194079 102.108715,17.3295858 C103.327491,17.1657475 105.765284,16.8632678 106.368289,16.3844106 L106.368289,18.6654885 C106.368289,20.820464 104.597692,22.6477632 101.800769,22.6477632 Z" id="形状"></path>
                    </g>
                </g>
            </g>
        </g>
    </g>
</svg>