<?xml version="1.0" encoding="UTF-8"?>
<svg width="818px" height="142px" viewBox="0 0 818 142" version="1.1" xmlns="http://www.w3.org/2000/svg" xmlns:xlink="http://www.w3.org/1999/xlink">
    <title>编组</title>
    <defs>
        <polygon id="path-1" points="0 0 119 0 119 142 0 142"></polygon>
    </defs>
    <g id="页面-1" stroke="none" stroke-width="1" fill="none" fill-rule="evenodd">
        <g id="首页" transform="translate(-102.000000, -644.000000)">
            <g id="编组" transform="translate(102.000000, 644.000000)">
                <g>
                    <mask id="mask-2" fill="white">
                        <use xlink:href="#path-1"></use>
                    </mask>
                    <g id="Clip-2"></g>
                    <path d="M51.2367001,0.261769776 C57.7832507,-0.352992577 64.3606449,0.214395616 70.8774535,0.936025261 C81.8059961,2.24377242 92.6199768,5.07300131 102.50865,9.96135357 C106.107435,11.800132 109.616994,13.8834933 112.732196,16.473648 C106.835564,24.5382724 101.02926,32.6800175 94.9475658,40.600316 C83.2435274,35.551112 70.5910488,32.334076 57.7953678,32.3450932 C52.8537851,32.5004364 47.6918911,32.9124814 43.2636337,35.3065291 C41.0076459,36.5415624 38.9543445,38.8045049 39.0556877,41.5257647 C39.2528663,43.6983657 40.8875763,45.3994286 42.6908243,46.4504739 C46.2830003,48.4798507 50.2397914,49.7336134 54.1613328,50.9510191 C67.9594302,55.1596072 82.2289938,58.1496879 95.3529386,64.3215494 C104.186321,68.5841221 112.565861,75.0721785 116.463168,84.3475983 C121.404751,95.9223175 118.647555,109.483446 112.321316,119.959746 C105.845265,129.187792 95.8133893,135.490758 85.1415093,138.768389 C74.8287369,141.908304 63.8418118,142.647562 53.1467992,141.472021 C34.0964801,138.708896 15.2664723,132.124989 0,120.156955 C5.87900734,111.871985 11.8703734,103.652018 17.8870754,95.4628983 C26.5519192,101.371448 36.5132952,105.150363 46.6531233,107.651278 C55.3014438,109.621162 64.4741052,110.558729 73.1576756,108.290278 C76.7443437,107.245843 80.6174166,105.44232 82.2653452,101.867224 C83.4649403,99.4081743 82.3666884,96.4412298 80.3618554,94.7644049 C77.6222843,92.3945952 74.0290068,91.4217723 70.6571422,90.3112339 C55.8973859,85.9241663 40.5714295,82.9935787 26.6003877,76.2961946 C18.4059085,72.3619359 10.7489889,66.4467763 6.5773942,58.1915535 C2.4113073,50.1214204 2.2438707,40.4758211 4.70915428,31.8625378 C6.6963623,24.3950482 11.637945,18.0733522 17.3373986,13.0175377 C26.7667228,5.0366444 39.0799219,1.22908402 51.2367001,0.261769776" id="Fill-1" fill="#1B1B23" mask="url(#mask-2)"></path>
                </g>
                <path d="M361.074953,90.1109715 C356.413071,96.5109857 349.336116,101.108969 341.583908,102.721891 C333.391797,104.472247 324.529932,102.916497 317.493668,98.3580952 C309.23887,93.2103771 303.609199,84.1287557 302.637011,74.4578185 C301.745106,66.5647241 303.952324,58.3967622 308.620805,51.9802559 C313.792976,44.797419 322.01918,39.9069769 330.806261,38.8207007 C337.659965,37.9620147 344.776511,39.3407499 350.777901,42.7721955 C359.461605,47.5702821 365.663151,56.5848358 366.99606,66.4151962 C368.220093,74.6865083 366.052466,83.3855141 361.074953,90.1109715 L361.074953,90.1109715 Z M402.973606,72.33914 C402.979105,71.8949542 403,71.4518678 402.996701,71.0087814 C403.146268,52.9356952 395.565623,34.9879486 382.579658,22.4342013 C368.426848,8.34779295 347.790953,1.19903967 327.945786,3.38918371 C318.712202,4.31053948 309.678774,7.18675274 301.607636,11.7561496 C286.132915,20.4155746 274.330291,35.3595694 269.565032,52.4431327 C263.793492,72.5128563 267.883499,95.1839256 280.606621,111.792518 C293.587087,129.425816 315.554791,139.920256 337.431215,138.936231 C347.859138,138.619583 358.161689,135.771956 367.331487,130.829839 L367.331487,139 L403,139 L403,72.33914 L402.973606,72.33914 Z" id="Fill-3" fill="#1B1B23"></path>
                <path d="M460.514495,4.25446208 C466.841182,3.65714872 473.197454,4.20817581 479.495653,4.91018432 C490.056203,6.18085279 500.507182,8.93047796 510.064052,13.6814335 C513.541868,15.4678634 516.933121,17.4923369 519.94416,20.0094286 C514.24532,27.8472379 508.633042,35.7588849 502.756695,43.4567333 C491.445577,38.5492861 479.218436,35.4227584 466.853235,35.434881 C462.076991,35.5847603 457.088178,35.9859081 452.809391,38.3112424 C450.628908,39.5124814 448.644559,41.7110795 448.743174,44.3560095 C448.932733,46.4675454 450.513857,48.1206266 452.254957,49.1422308 C455.727293,51.1138058 459.551357,52.3326777 463.340357,53.5162839 C476.67527,57.6060069 490.466003,60.5121238 503.148963,66.5095027 C511.684622,70.6521243 519.781993,76.9569763 523.547983,85.9717795 C528.324227,97.2204465 525.659436,110.399912 519.545318,120.580689 C513.287661,129.549206 503.592729,135.674423 493.279812,138.85936 C483.314238,141.910948 472.695615,142.629487 462.359687,141.486657 C443.950494,138.800951 425.752775,132.402424 411,120.771344 C416.681309,112.719736 422.471093,104.732048 428.284984,96.7730125 C436.659573,102.515817 446.285474,106.187861 456.084498,108.618993 C464.442651,110.533261 473.307026,111.443558 481.699146,109.239449 C485.164909,108.224457 488.907889,106.472191 490.49997,102.997414 C491.659242,100.608161 490.598585,97.7251873 488.660256,96.0952491 C486.012996,93.7919559 482.540659,92.8463934 479.281988,91.7674824 C465.019,87.5036348 450.208151,84.6548247 436.705593,78.1471948 C428.786824,74.3241688 421.387426,68.5747522 417.355176,60.5528998 C413.329501,52.7095802 413.16843,43.3355074 415.550525,34.9643038 C417.471323,27.7072771 422.246471,21.5644271 427.754656,16.6514695 C436.86776,8.89521223 448.766184,5.1945143 460.514495,4.25446208" id="Fill-5" fill="#1B1B23"></path>
                <path d="M598.275724,41.0836965 C589.42404,42.1782279 581.137287,47.1047137 575.927001,54.3406607 C571.224715,60.8049631 569.000025,69.031461 569.898878,76.9821371 C570.878749,86.724561 576.549958,95.8737489 584.865176,101.059639 C591.954187,105.651198 600.880319,107.217472 609.133132,105.455277 C616.941445,103.829898 624.070965,99.1978407 628.766682,92.7510508 C633.780994,85.9759015 635.965175,77.2130832 634.731304,68.8826048 C633.389045,58.9781902 627.141957,49.8990523 618.394282,45.0645072 C612.348642,41.607977 605.179709,40.2190167 598.275724,41.0836965 M595.394137,5.39212233 C615.385695,3.18554704 636.172098,10.3875636 650.430042,24.5770686 C663.512141,37.2232843 671.147471,55.3027538 670.99748,73.5080944 C671.159514,91.7145296 663.500098,109.776487 650.435516,122.43912 C638.41978,134.319164 621.846274,141.422673 604.9487,141.936008 C582.912003,142.926559 560.782246,132.35448 547.706716,114.592425 C534.889566,97.8614179 530.769728,75.0240204 536.584359,54.8069311 C541.384085,37.597614 553.272821,22.5434292 568.862076,13.8211086 C576.993363,9.21750954 586.092478,6.32028495 595.394137,5.39212233" id="Fill-7" fill="#1B1B23"></path>
                <path d="M730.691235,6.63399717 C743.772832,2.86639455 757.972204,3.15053412 770.897246,7.42253955 C789.130905,13.3465192 804.487466,27.4279478 812.157536,45.08535 C816.502741,54.8540245 818.271915,65.6304032 817.966469,76.2966503 C817.960996,97.1610852 817.978512,118.029925 817.955522,138.893259 C805.89974,138.893259 793.838484,138.946122 781.782702,138.870131 C781.828683,116.662091 781.794745,94.4595566 781.800219,72.2504147 C781.69074,61.0742582 775.311423,50.2736505 765.658696,44.761563 C754.992197,38.3728279 740.649408,39.0853795 730.656202,46.5005413 C722.491289,52.3209973 717.29872,62.1403322 717.194715,72.2217805 C717.183767,94.4474422 717.206758,116.673104 717.183767,138.893259 C705.122512,138.91088 693.054687,139.131143 681,138.882246 C681.056929,116.464955 681,94.0476644 681.028464,71.6303737 C681.224431,52.9057961 689.556846,34.4829792 703.376328,21.9610143 C711.127412,14.8079658 720.566656,9.51504028 730.691235,6.63399717" id="Fill-9" fill="#1B1B23"></path>
                <path d="M185.806938,39.8204863 C192.660659,38.9629049 199.777224,40.341632 205.778629,43.7730572 C211.446806,46.9043288 216.046014,51.8387205 218.93509,57.6175 L160.843424,57.6175 C161.642952,56.0001894 162.559054,54.4400508 163.621425,52.9810629 C168.793609,45.7971692 177.019834,40.9067561 185.806938,39.8204863 L185.806938,39.8204863 Z M235.432631,83.2185047 L257.085859,83.2569859 C257.707225,79.5440981 258.031655,75.780635 257.997562,72.0083761 C258.14713,53.9353971 250.566465,35.9888564 237.580467,23.4351836 C223.426521,9.34775937 202.791673,2.19904849 182.946455,4.38917954 C173.712848,5.31052985 164.679397,8.18672604 156.608238,12.7571953 C141.133477,21.4165689 129.330824,36.3604751 124.565552,53.443937 C118.792898,73.512442 122.884015,96.1833768 135.60607,112.791871 C148.587669,130.425064 170.555429,140.919442 192.431909,139.936522 C209.20549,139.42747 225.65794,132.375512 237.585966,120.581569 C239.354384,118.868605 241.012827,117.046794 242.575589,115.146921 L218.329121,87.518506 C217.649468,88.7587007 216.919225,89.9714088 216.075707,91.1104528 C211.412713,97.5104291 204.33684,102.109484 196.584613,103.721298 C188.39248,105.471643 179.530592,103.915903 172.494311,99.3575276 C166.506103,95.6248494 161.911294,89.8163844 159.462123,83.2185047 L235.432631,83.2185047 Z" id="Fill-11" fill="#1B1B23"></path>
            </g>
        </g>
    </g>
</svg>