<?xml version="1.0" encoding="UTF-8"?>
<svg width="163px" height="24px" viewBox="0 0 163 24" version="1.1" xmlns="http://www.w3.org/2000/svg" xmlns:xlink="http://www.w3.org/1999/xlink">
    <title>编组</title>
    <defs>
        <polygon id="path-1" points="0 0 19 0 19 23 0 23"></polygon>
        <polygon id="path-3" points="0 0 11 0 11 11 0 11"></polygon>
        <polygon id="path-5" points="0 0 11 0 11 11 0 11"></polygon>
    </defs>
    <g id="页面-1" stroke="none" stroke-width="1" fill="none" fill-rule="evenodd">
        <g id="首页" transform="translate(-24.000000, -23.000000)">
            <g id="编组" transform="translate(24.000000, 23.000000)">
                <g transform="translate(29.000000, 0.000000)">
                    <mask id="mask-2" fill="white">
                        <use xlink:href="#path-1"></use>
                    </mask>
                    <g id="Clip-2"></g>
                    <path d="M8.18064959,0.04239933 C9.22589717,-0.057174854 10.2760694,0.0347260506 11.3165682,0.151609725 C13.0614616,0.363427927 14.7880635,0.821683311 16.3669273,1.61345868 C16.9415233,1.91128899 17.5018731,2.24873483 17.9992582,2.66826692 C17.0577792,3.97450891 16.1307221,5.29324228 15.1596954,6.57610753 C13.2909834,5.7582787 11.2708397,5.23720949 9.22783184,5.23899398 C8.43883964,5.26415519 7.61467169,5.33089488 6.907639,5.71866316 C6.54743926,5.91870377 6.21960122,6.2852367 6.23578207,6.72600415 C6.26726437,7.07790431 6.52826848,7.35342858 6.81618204,7.52366831 C7.38972273,7.85237019 8.0214793,8.05544442 8.64760775,8.25262985 C10.8506653,8.93430258 13.128999,9.41861143 15.2244188,10.4182791 C16.6347907,11.1086958 17.9727006,12.1595782 18.5949597,13.6619349 C19.3839519,15.5367134 18.9437273,17.7332342 17.9336555,19.4300997 C16.8996641,20.9247831 15.2979361,21.9456862 13.5940225,22.4765701 C11.9474454,22.9851479 10.1932305,23.1048867 8.4856234,22.9144823 C5.44397581,22.4669338 2.43750398,21.4005265 0,19.4620419 C0.938665037,18.1201103 1.89526971,16.7887071 2.8559196,15.4623004 C4.23938206,16.419319 5.82985385,17.0313968 7.448818,17.4364746 C8.82964229,17.7555403 10.2941849,17.9073998 11.6806373,17.5399747 C12.2532986,17.3708056 12.8716884,17.0786857 13.134803,16.4996207 C13.326335,16.101324 13.1509839,15.6207626 12.8308845,15.3491642 C12.393474,14.9653218 11.8197574,14.8077519 11.2813924,14.6278759 C8.9247927,13.9172945 6.47779127,13.4426219 4.24712073,12.3578343 C2.9387585,11.7205953 1.71622511,10.762506 1.05017218,9.42539246 C0.384998645,8.11825824 0.358265071,6.55594286 0.751881775,5.16083359 C1.06916709,3.95131062 1.85815929,2.92737394 2.76815608,2.10847442 C4.27367842,0.815794515 6.2396514,0.199076989 8.18064959,0.04239933" id="Fill-1" fill="#6C6EB9" mask="url(#mask-2)"></path>
                </g>
                <path d="M87.2180071,15.0914807 C86.4638791,16.1267771 85.3190776,16.8705685 84.065044,17.1314824 C82.7398495,17.4146282 81.3063125,17.1629628 80.1680933,16.4255742 C78.8327584,15.5928551 77.9220763,14.1237693 77.7648107,12.559353 C77.6205319,11.2825289 77.9775819,9.96124095 78.7327773,8.92327669 C79.569452,7.7613472 80.9001614,6.97024627 82.3216011,6.79452511 C83.4302885,6.65562002 84.5814945,6.87865073 85.5523076,7.43373751 C86.9570244,8.20989858 87.9602157,9.66813521 88.1758333,11.2583406 C88.3738386,12.5963469 88.0231931,14.003539 87.2180071,15.0914807 L87.2180071,15.0914807 Z M93.9957303,12.2166256 C93.9966199,12.144772 94,12.0730963 93.9994663,12.0014205 C94.023661,9.07783305 92.7973802,6.1745211 90.6967094,4.14376786 C88.4072842,1.86508415 85.0691248,0.708668181 81.8588771,1.06295619 C80.3652091,1.21199903 78.9039193,1.67726883 77.5982941,2.41643597 C75.0950303,3.8172253 73.1857824,6.23463623 72.4149316,8.99815382 C71.4813001,12.2447267 72.1429189,15.9121056 74.2010711,18.5987897 C76.3008523,21.451235 79.8544515,23.148865 83.3932848,22.9896844 C85.0801547,22.938462 86.7467438,22.4778165 88.2300935,21.6783563 L88.2300935,23 L94,23 L94,12.2166256 L93.9957303,12.2166256 Z" id="Fill-3" fill="#6C6EB9"></path>
                <path d="M104.180656,1.04241035 C105.225934,0.94285812 106.276101,1.03469597 107.316673,1.15169739 C109.06146,1.36347546 110.788143,1.82174633 112.367104,2.61357226 C112.9417,2.91131056 113.501994,3.24872281 113.99947,3.6682381 C113.057922,4.97453966 112.130676,6.29314748 111.159802,7.57612222 C109.291008,6.75821435 107.270872,6.2371264 105.227926,6.23914683 C104.438807,6.26412672 103.614569,6.33098468 102.907639,6.7185404 C102.547385,6.91874691 102.219536,7.28517992 102.235829,7.72600159 C102.267147,8.07792423 102.528376,8.35343777 102.816036,8.52370514 C103.389727,8.85230096 104.021528,9.05544628 104.647537,9.25271398 C106.850697,9.93433449 109.129166,10.4186873 111.224611,11.4182504 C112.634851,12.1086874 113.972677,13.159496 114.594884,14.6619632 C115.384003,16.5367411 114.943733,18.7333187 113.933574,20.4301148 C112.8997,21.9248676 111.297929,22.9457372 109.594056,23.4765599 C107.94757,23.9851579 106.193188,24.1049145 104.485514,23.9144428 C101.443995,23.4668251 98.437415,22.400404 96,20.4618907 C96.938651,19.1199561 97.8952241,17.7886746 98.85578,16.4621687 C100.239408,17.4193028 101.829774,18.0313102 103.448743,18.4364988 C104.829655,18.7555435 106.294204,18.9072596 107.680729,18.5399082 C108.253333,18.3707429 108.871738,18.0786985 109.134778,17.4995691 C109.32631,17.1013602 109.151071,16.6208645 108.830825,16.3492082 C108.393452,15.965326 107.819761,15.8077322 107.281372,15.6279137 C104.924878,14.9172725 102.477869,14.4424708 100.247011,13.3578658 C98.9386927,12.7206948 97.7161835,11.7624587 97.0499857,10.4254833 C96.3848741,9.11826337 96.3582624,7.5559179 96.7518259,6.16071731 C97.0691751,4.95121284 97.8581126,3.92740451 98.7681605,3.10857826 C100.273804,1.81586871 102.23963,1.19908572 104.180656,1.04241035" id="Fill-5" fill="#6C6EB9"></path>
                <path d="M126.790818,7.05784686 C125.304768,7.2416003 123.913561,8.06867456 123.038841,9.28346859 C122.249406,10.3687164 121.875918,11.7498073 122.02682,13.0845924 C122.191324,14.7201818 123.143425,16.2561768 124.539411,17.1268006 C125.729537,17.8976463 127.228086,18.1605975 128.613595,17.8647545 C129.92448,17.5918806 131.121223,16.814236 131.909739,15.7319282 C132.751558,14.5944944 133.118245,13.1233643 132.911099,11.7248169 C132.685756,10.0620319 131.636975,8.5377971 130.168387,7.72615814 C129.153425,7.14586476 127.949881,6.91268163 126.790818,7.05784686 M126.307047,1.06583076 C129.663295,0.69538381 133.152984,1.90448148 135.546654,4.28666115 C137.742919,6.40974845 139.024764,9.44498786 138.999582,12.5013589 C139.026602,15.5579137 137.740898,18.5902131 135.547573,20.7160567 C133.530332,22.7105166 130.747918,23.9030765 127.911099,23.9892568 C124.211506,24.1555537 120.496291,22.3806792 118.301128,19.3987282 C116.149343,16.5898731 115.457691,12.7558574 116.433871,9.36174755 C117.239664,6.47259213 119.235584,3.94524724 121.852759,2.48091604 C123.217866,1.70804905 124.745455,1.22165368 126.307047,1.06583076" id="Fill-7" fill="#6C6EB9"></path>
                <path d="M148.342324,1.42924398 C150.538505,0.815264296 152.922341,0.861568523 155.092238,1.55774719 C158.153364,2.52313647 160.731472,4.81788779 162.019148,7.69539037 C162.748635,9.2873225 163.04565,11.0434731 162.994371,12.7816763 C162.993452,16.1818065 162.996393,19.5826545 162.992533,22.9826052 C160.968569,22.9826052 158.943687,22.9912199 156.919724,22.9788362 C156.927443,19.3597481 156.921745,15.7415574 156.922664,12.1222898 C156.904285,10.3009902 155.833305,8.54089119 154.212774,7.64262509 C152.422048,6.60149789 150.014134,6.7176174 148.336443,7.92601414 C146.965691,8.87453289 146.093946,10.4747208 146.076485,12.1176235 C146.074647,15.7395832 146.078507,19.3615428 146.074647,22.9826052 C144.049765,22.9854767 142.02378,23.0213715 140,22.9808104 C140.009557,19.3276223 140,15.6744342 140.004779,12.0212461 C140.037678,8.96983345 141.436551,5.96759661 143.75661,3.92698011 C145.057887,2.76129813 146.642577,1.8987473 148.342324,1.42924398" id="Fill-9" fill="#6C6EB9"></path>
                <path d="M59.3217106,6.79449043 C60.4304008,6.65576402 61.5816097,6.8787934 62.5524253,7.43387689 C63.4693363,7.94040614 64.2133257,8.73861655 64.6806764,9.67341912 L55.2834951,9.67341912 C55.4128305,9.41179534 55.5610235,9.15941999 55.7328776,8.92340724 C56.5695544,7.76130679 57.9002673,6.97021055 59.3217106,6.79449043 L59.3217106,6.79449043 Z M67.3493961,13.8147581 L70.8521242,13.820983 C70.9526393,13.2203688 71.0051206,12.6115733 70.9996056,12.001355 C71.0238004,9.07778483 69.7975164,6.17466795 67.6968403,4.14392676 C65.4072314,1.86507872 62.0692413,0.708669609 58.8589854,1.06295551 C57.3653136,1.21199748 55.9040201,1.67726451 54.5983915,2.41660512 C52.0951213,3.81738614 50.1858686,6.23478273 49.4150158,8.99828393 C48.481204,12.2446597 49.1430024,15.9120168 51.2009819,18.598685 C53.3009464,21.4511133 56.8545547,23.1487333 60.393397,22.9897315 C63.1067704,22.9073849 65.7681961,21.766627 67.6977298,19.8587832 C67.9837975,19.5816861 68.2520749,19.2869814 68.5048748,18.979649 L64.5826519,14.5103466 C64.472708,14.7109663 64.3545805,14.9071397 64.2181291,15.0913968 C63.4638213,16.1266871 62.3191947,16.8706519 61.0651579,17.1313864 C59.7399601,17.4145306 58.3064194,17.1628666 57.1681973,16.4254824 C56.1995166,15.8216668 55.4562387,14.8820622 55.0600492,13.8147581 L67.3493961,13.8147581 Z" id="Fill-11" fill="#6C6EB9"></path>
                <g>
                    <mask id="mask-4" fill="white">
                        <use xlink:href="#path-3"></use>
                    </mask>
                    <g id="Clip-14"></g>
                    <path d="M7.58197692,10.5918993 C7.26209904,9.06254107 6.44368609,7.716476 5.30409796,6.731808 L6.65885308,5.37703233 C7.66852557,6.50496184 9.03847767,7.30355669 10.5876429,7.59211834 C10.8532194,6.94716358 11,6.24086398 11,5.50009267 C11,2.462504 8.53753334,0 5.49998147,0 L-1.85329018e-05,0 L-1.85329018e-05,5.50009267 C-1.85329018e-05,8.53768133 2.46244813,11 5.49998147,11 C6.23685891,11 6.93981187,10.8546998 7.58197692,10.5918993" id="Fill-13" fill="#6C6EB9" mask="url(#mask-4)"></path>
                </g>
                <path d="M16.4180173,10.5918993 C16.7378947,9.06254107 17.5563062,7.716476 18.6958924,6.731808 L17.3411396,5.37703233 C16.3314688,6.50496184 14.961519,7.30355669 13.4123564,7.59211834 C13.1467803,6.94716358 13,6.24086398 13,5.50009267 C13,2.462504 15.4624625,0 18.5,0 L24,0 L24,5.50009267 C24,8.53768133 21.5375375,11 18.5,11 C17.7631331,11 17.0601813,10.8546998 16.4180173,10.5918993" id="Fill-15" fill="#6C6EB9"></path>
                <g transform="translate(0.000000, 13.000000)">
                    <mask id="mask-6" fill="white">
                        <use xlink:href="#path-5"></use>
                    </mask>
                    <g id="Clip-18"></g>
                    <path d="M7.58197692,0.408100686 C7.26209904,1.93745893 6.44368609,3.283524 5.30409796,4.268192 L6.65885308,5.62296767 C7.66852557,4.49503816 9.03847767,3.69644331 10.5876429,3.40788166 C10.8532194,4.05283642 11,4.75913602 11,5.49990733 C11,8.537496 8.53753334,11 5.49998147,11 L-1.85329019e-05,11 L-1.85329019e-05,5.49990733 C-1.85329019e-05,2.46231867 2.46244813,0 5.49998147,0 C6.23685891,0 6.93981187,0.145114821 7.58197692,0.408100686" id="Fill-17" fill="#6C6EB9" mask="url(#mask-6)"></path>
                </g>
                <path d="M16.4180173,13.4081007 C16.7378947,14.9374589 17.5563062,16.283524 18.6958924,17.268192 L17.3411396,18.6229677 C16.3314688,17.4950382 14.961519,16.6964433 13.4123564,16.4078817 C13.1467803,17.0528364 13,17.759136 13,18.4999073 C13,21.537496 15.4624625,24 18.5,24 L24,24 L24,18.4999073 C24,15.4623187 21.5375375,13 18.5,13 C17.7631331,13 17.0601813,13.1451148 16.4180173,13.4081007" id="Fill-19" fill="#6C6EB9"></path>
            </g>
        </g>
    </g>
</svg>